<?xml version="1.0" encoding="UTF-8" standalone="no"?>
<svg
   xmlns:dc="http://purl.org/dc/elements/1.1/"
   xmlns:cc="http://creativecommons.org/ns#"
   xmlns:rdf="http://www.w3.org/1999/02/22-rdf-syntax-ns#"
   xmlns:svg="http://www.w3.org/2000/svg"
   xmlns="http://www.w3.org/2000/svg"
   xmlns:sodipodi="http://sodipodi.sourceforge.net/DTD/sodipodi-0.dtd"
   xmlns:inkscape="http://www.inkscape.org/namespaces/inkscape"
   viewBox="0 0 705.18 49.4"
   version="1.1"
   id="svg78"
   sodipodi:docname="cit_down.svg"
   width="705.17999"
   height="49.400002"
   inkscape:version="0.92.4 (5da689c313, 2019-01-14)">
  <metadata
     id="metadata82">
    <rdf:RDF>
      <cc:Work
         rdf:about="">
        <dc:format>image/svg+xml</dc:format>
        <dc:type
           rdf:resource="http://purl.org/dc/dcmitype/StillImage" />
        <dc:title>Ресурс 4</dc:title>
      </cc:Work>
    </rdf:RDF>
  </metadata>
  <sodipodi:namedview
     pagecolor="#ffffff"
     bordercolor="#666666"
     borderopacity="1"
     objecttolerance="10"
     gridtolerance="10"
     guidetolerance="10"
     inkscape:pageopacity="0"
     inkscape:pageshadow="2"
     inkscape:window-width="1920"
     inkscape:window-height="1017"
     id="namedview80"
     showgrid="false"
     inkscape:zoom="1.8539521"
     inkscape:cx="391.93186"
     inkscape:cy="60.924356"
     inkscape:window-x="-8"
     inkscape:window-y="-8"
     inkscape:window-maximized="1"
     inkscape:current-layer="Слой_1-2" />
  <defs
     id="defs12">
    <style
       id="style10">.cls-1{fill:#20232c;}</style>
  </defs>
  <title
     id="title14">Ресурс 4</title>
  <g
     id="Слой_2"
     data-name="Слой 2">
    <g
       id="Слой_1-2"
       data-name="Слой 1">
      <path
         class="cls-1"
         d="m 27.76,6.4 v 4.69 A 15.37,15.37 0 0 0 23.34,7.94 14.07,14.07 0 0 0 17.49,6.6 a 12.87,12.87 0 0 0 -9.73,4.09 14.05,14.05 0 0 0 -2.95,4.64 14.34,14.34 0 0 0 -0.94,5.42 12.75,12.75 0 0 0 4.25,10.12 14,14 0 0 0 9.43,3.71 13.56,13.56 0 0 0 6.3,-1.58 14.82,14.82 0 0 0 3.91,-2.85 v 4.7 A 17.17,17.17 0 0 1 17.55,38.15 17.66,17.66 0 0 1 5.07,8.1 17.08,17.08 0 0 1 17.71,3.1 16.08,16.08 0 0 1 27.76,6.4 Z"
         id="path16"
         inkscape:connector-curvature="0"
         style="fill:#20232c" />
      <path
         class="cls-1"
         d="m 51.6,35 a 11.75,11.75 0 0 1 -16,0 11.55,11.55 0 0 1 0,-15.92 11.75,11.75 0 0 1 16,0 11.55,11.55 0 0 1 0,15.92 z M 48.85,21.23 A 7.44,7.44 0 0 0 36.17,27 a 7.5,7.5 0 0 0 0.49,3.11 7.4,7.4 0 0 0 1.7,2.64 A 7.43,7.43 0 0 0 51,27 7.63,7.63 0 0 0 48.85,21.23 Z"
         id="path18"
         inkscape:connector-curvature="0"
         style="fill:#20232c" />
      <path
         class="cls-1"
         d="M 60.37,37.5 V 16.4 H 64 v 2.24 a 5.92,5.92 0 0 1 2.26,-2.07 6,6 0 0 1 3,-0.68 6.28,6.28 0 0 1 3.39,0.86 6.36,6.36 0 0 1 2.41,2.55 7,7 0 0 1 2.7,-2.57 7.12,7.12 0 0 1 3.64,-0.84 c 4.59,0 6.87,2.75 6.87,8.24 V 37.54 H 84.62 V 24.72 a 15.67,15.67 0 0 0 -0.18,-2.56 3.9,3.9 0 0 0 -1.07,-2 3.26,3.26 0 0 0 -2.51,-1 q -4.69,0 -4.69,6.61 V 37.54 H 72.51 V 25 q 0,-5.85 -3.87,-5.85 Q 64,19.18 64,26 v 11.5 z"
         id="path20"
         inkscape:connector-curvature="0"
         style="fill:#20232c" />
      <path
         class="cls-1"
         d="m 142.89,30.44 3,1.67 a 12,12 0 0 1 -2.59,3.41 10.16,10.16 0 0 1 -7,2.59 10.61,10.61 0 0 1 -7.3,-2.77 q -3.08,-2.78 -3.07,-8.26 a 11.76,11.76 0 0 1 2.77,-8 9.45,9.45 0 0 1 3.3,-2.44 9.34,9.34 0 0 1 4.08,-0.75 9.08,9.08 0 0 1 8,3.87 12.92,12.92 0 0 1 2,7.93 h -16.44 a 7.31,7.31 0 0 0 2,5.19 6.65,6.65 0 0 0 9,0.48 8.2,8.2 0 0 0 2.25,-2.92 z m -13,-5.8 h 12.4 a 6.8,6.8 0 0 0 -2.16,-4 6.11,6.11 0 0 0 -8.09,0.06 6.6,6.6 0 0 0 -2.19,4 z"
         id="path22"
         inkscape:connector-curvature="0"
         style="fill:#20232c" />
      <path
         class="cls-1"
         d="M 151.65,37.5 V 16.4 h 3.66 v 2.29 a 5.42,5.42 0 0 1 4.78,-2.8 7.23,7.23 0 0 1 3.25,0.87 l -1.73,3.3 a 3.7,3.7 0 0 0 -2.13,-0.71 3.51,3.51 0 0 0 -3,1.34 c -0.82,1.09 -1.22,3 -1.22,5.7 v 11.13 z"
         id="path24"
         inkscape:connector-curvature="0"
         style="fill:#20232c" />
      <path
         class="cls-1"
         d="m 182,17.92 v 4.38 a 8.07,8.07 0 0 0 -2.93,-2.38 8.18,8.18 0 0 0 -3.68,-0.78 7.29,7.29 0 0 0 -2.85,0.53 7.16,7.16 0 0 0 -2.43,1.59 7.56,7.56 0 0 0 -2.19,5.74 7.58,7.58 0 0 0 2.19,5.75 7.36,7.36 0 0 0 5.23,2.08 8.47,8.47 0 0 0 6.81,-3.3 v 4.37 a 11.78,11.78 0 0 1 -14.82,-0.9 10.7,10.7 0 0 1 -3.18,-7.91 10.8,10.8 0 0 1 3.21,-8 11.72,11.72 0 0 1 14.64,-1.17 z"
         id="path26"
         inkscape:connector-curvature="0"
         style="fill:#20232c" />
      <path
         class="cls-1"
         d="M 187.75,10.25 A 2.56,2.56 0 0 1 187.44,7 a 2.54,2.54 0 0 1 1.4,-1 2.57,2.57 0 0 1 3,1.26 2.54,2.54 0 0 1 0.25,1.71 2.59,2.59 0 0 1 -0.89,1.49 2.56,2.56 0 0 1 -1.63,0.58 2.44,2.44 0 0 1 -1,-0.19 2.51,2.51 0 0 1 -0.82,-0.6 z m 0,6.15 h 3.66 v 21.1 h -3.66 z"
         id="path28"
         inkscape:connector-curvature="0"
         style="fill:#20232c" />
      <path
         class="cls-1"
         d="m 214.49,19.4 v -3 h 3.66 v 21.1 h -3.66 v -2.94 a 8.75,8.75 0 0 1 -7.24,3.55 9.85,9.85 0 0 1 -3.94,-0.73 10,10 0 0 1 -3.31,-2.22 q -3,-2.94 -3,-8.23 0,-5.29 3,-8.11 a 10,10 0 0 1 7.3,-2.93 8.58,8.58 0 0 1 7.24,3.51 z m -6.81,-0.26 a 6.68,6.68 0 0 0 -4.91,2.06 7.88,7.88 0 0 0 -2,5.73 8.57,8.57 0 0 0 1.85,5.72 7.14,7.14 0 0 0 2.31,1.65 6.89,6.89 0 0 0 7.86,-1.73 8.42,8.42 0 0 0 1.9,-5.57 7.65,7.65 0 0 0 -2.14,-5.8 7,7 0 0 0 -2.23,-1.51 6.88,6.88 0 0 0 -2.64,-0.53 z"
         id="path30"
         inkscape:connector-curvature="0"
         style="fill:#20232c" />
      <path
         class="cls-1"
         d="m 225.06,0.43 h 3.64 V 37.5 H 225 Z"
         id="path32"
         inkscape:connector-curvature="0"
         style="fill:#20232c" />
      <path
         class="cls-1"
         d="m 248.39,3.59 h 3.77 V 37.5 h -3.77 z"
         id="path34"
         inkscape:connector-curvature="0"
         style="fill:#20232c" />
      <path
         class="cls-1"
         d="M 260,37.5 V 16.4 h 3.66 v 2.44 a 7.42,7.42 0 0 1 2.66,-2.22 7.31,7.31 0 0 1 3.38,-0.73 6.79,6.79 0 0 1 6,2.9 c 0.82,1.19 1.22,3.07 1.22,5.65 V 37.5 h -3.66 v -13 a 6.41,6.41 0 0 0 -1,-3.87 4.11,4.11 0 0 0 -1.51,-1.17 4,4 0 0 0 -1.88,-0.36 4.67,4.67 0 0 0 -2,0.38 4.53,4.53 0 0 0 -1.66,1.25 q -1.53,1.77 -1.53,5.69 v 11 z"
         id="path36"
         inkscape:connector-curvature="0"
         style="fill:#20232c" />
      <path
         class="cls-1"
         d="m 292.83,19.75 h -5.19 V 37.5 H 284 V 19.75 h -2 V 16.4 h 2 V 7.3 q 0,-4.21 2,-5.95 A 6.32,6.32 0 0 1 290.22,0 7.63,7.63 0 0 1 292.81,0.45 V 4 a 6.5,6.5 0 0 0 -2.39,-0.45 2.45,2.45 0 0 0 -1.33,0.23 2.55,2.55 0 0 0 -1,0.89 6.77,6.77 0 0 0 -0.46,3.05 v 8.72 h 5.19 z"
         id="path38"
         inkscape:connector-curvature="0"
         style="fill:#20232c" />
      <path
         class="cls-1"
         d="m 314,35 a 11.76,11.76 0 0 1 -16,0 11.55,11.55 0 0 1 0,-15.92 11.76,11.76 0 0 1 16,0 11.58,11.58 0 0 1 0,15.92 z m -2.75,-13.73 a 7.44,7.44 0 0 0 -12.73,5.73 7.44,7.44 0 1 0 14.85,0 7.67,7.67 0 0 0 -2.16,-5.77 z"
         id="path40"
         inkscape:connector-curvature="0"
         style="fill:#20232c" />
      <path
         class="cls-1"
         d="M 322.72,37.5 V 16.4 h 3.66 v 2.29 a 5.49,5.49 0 0 1 2,-2.05 5.41,5.41 0 0 1 2.77,-0.75 7.31,7.31 0 0 1 3.26,0.87 l -1.73,3.3 a 3.73,3.73 0 0 0 -2.14,-0.71 3.51,3.51 0 0 0 -2.95,1.34 q -1.22,1.64 -1.22,5.7 v 11.13 z"
         id="path42"
         inkscape:connector-curvature="0"
         style="fill:#20232c" />
      <path
         class="cls-1"
         d="M 337.77,37.5 V 16.4 h 3.66 v 2.24 a 6,6 0 0 1 5.24,-2.75 6.25,6.25 0 0 1 5.79,3.41 7.1,7.1 0 0 1 6.36,-3.41 q 6.85,0 6.86,8.24 V 37.54 H 362 V 24.72 a 16.85,16.85 0 0 0 -0.17,-2.56 4,4 0 0 0 -1.08,-2 3.06,3.06 0 0 0 -1.15,-0.75 3.16,3.16 0 0 0 -1.36,-0.21 q -4.69,0 -4.69,6.61 v 11.73 h -3.66 V 25 q 0,-5.85 -3.86,-5.85 -4.64,0 -4.63,6.86 v 11.5 z"
         id="path44"
         inkscape:connector-curvature="0"
         style="fill:#20232c" />
      <path
         class="cls-1"
         d="m 388.76,19.4 v -3 h 3.66 v 21.1 h -3.66 v -2.94 a 8.76,8.76 0 0 1 -3.17,2.66 8.62,8.62 0 0 1 -4,0.89 9.83,9.83 0 0 1 -3.93,-0.73 10,10 0 0 1 -3.33,-2.22 q -3,-2.94 -3,-8.23 0,-5.29 3,-8.11 a 9.78,9.78 0 0 1 3.35,-2.21 10,10 0 0 1 3.94,-0.72 8.6,8.6 0 0 1 4,0.86 8.48,8.48 0 0 1 3.14,2.65 z M 382,19.14 a 6.65,6.65 0 0 0 -2.67,0.52 6.75,6.75 0 0 0 -2.33,1.54 7.88,7.88 0 0 0 -2,5.73 8.62,8.62 0 0 0 1.85,5.72 7.07,7.07 0 0 0 2.32,1.65 6.88,6.88 0 0 0 7.85,-1.73 8.42,8.42 0 0 0 1.98,-5.57 7.65,7.65 0 0 0 -2.13,-5.8 7,7 0 0 0 -2.24,-1.51 6.8,6.8 0 0 0 -2.64,-0.53 z"
         id="path46"
         inkscape:connector-curvature="0"
         style="fill:#20232c" />
      <path
         class="cls-1"
         d="M 406.76,19.76 H 403.1 V 37.5 h -3.66 V 19.76 H 397.2 V 16.4 h 2.24 V 8.77 h 3.66 v 7.63 h 3.66 z"
         id="path48"
         inkscape:connector-curvature="0"
         style="fill:#20232c" />
      <path
         class="cls-1"
         d="m 410.21,10.25 a 2.56,2.56 0 0 1 -0.73,-1.58 2.58,2.58 0 0 1 1.83,-2.67 2.58,2.58 0 0 1 3.27,3 2.63,2.63 0 0 1 -0.9,1.49 2.57,2.57 0 0 1 -1.68,0.51 2.42,2.42 0 0 1 -1,-0.19 2.66,2.66 0 0 1 -0.79,-0.56 z m 0,6.15 h 3.67 v 21.1 h -3.67 z"
         id="path50"
         inkscape:connector-curvature="0"
         style="fill:#20232c" />
      <path
         class="cls-1"
         d="m 438.66,35 a 11.75,11.75 0 0 1 -16,0 11.55,11.55 0 0 1 0,-15.92 11.75,11.75 0 0 1 16,0 11.55,11.55 0 0 1 0,15.92 z m -2.74,-13.73 a 7.44,7.44 0 0 0 -12.69,5.73 7.67,7.67 0 0 0 0.49,3.11 7.4,7.4 0 0 0 1.7,2.64 7.43,7.43 0 0 0 12.65,-5.75 7.66,7.66 0 0 0 -2.15,-5.77 z"
         id="path52"
         inkscape:connector-curvature="0"
         style="fill:#20232c" />
      <path
         class="cls-1"
         d="M 447.43,37.5 V 16.4 h 3.66 v 2.44 a 7.21,7.21 0 0 1 2.65,-2.22 7.38,7.38 0 0 1 3.39,-0.73 6.79,6.79 0 0 1 6,2.9 c 0.81,1.18 1.22,3.07 1.22,5.65 V 37.5 h -3.66 v -13 a 6.34,6.34 0 0 0 -1,-3.87 4.15,4.15 0 0 0 -3.45,-1.53 4.63,4.63 0 0 0 -2.05,0.39 4.74,4.74 0 0 0 -1.67,1.24 q -1.51,1.79 -1.52,5.7 v 11 z"
         id="path54"
         inkscape:connector-curvature="0"
         style="fill:#20232c" />
      <path
         class="cls-1"
         d="m 500.66,7.14 h -8.24 V 37.5 h -3.76 V 7.14 h -8.24 V 3.59 h 20.24 z"
         id="path56"
         inkscape:connector-curvature="0"
         style="fill:#20232c" />
      <path
         class="cls-1"
         d="m 516.22,30.44 3,1.67 a 12.51,12.51 0 0 1 -2.59,3.41 10.16,10.16 0 0 1 -7,2.59 10.61,10.61 0 0 1 -7.38,-2.77 q -3.07,-2.78 -3.07,-8.26 a 11.76,11.76 0 0 1 2.77,-8 9.41,9.41 0 0 1 7.45,-3.18 9.09,9.09 0 0 1 8,3.87 13,13 0 0 1 2,7.93 H 503 a 7.28,7.28 0 0 0 2,5.19 6.47,6.47 0 0 0 2.15,1.5 6.39,6.39 0 0 0 2.58,0.51 6.55,6.55 0 0 0 4.32,-1.53 8.28,8.28 0 0 0 2.17,-2.93 z m -13,-5.8 h 12.4 a 6.8,6.8 0 0 0 -2.16,-4 6.11,6.11 0 0 0 -8.09,0.06 6.48,6.48 0 0 0 -2.11,3.94 z"
         id="path58"
         inkscape:connector-curvature="0"
         style="fill:#20232c" />
      <path
         class="cls-1"
         d="m 541.53,17.92 v 4.38 a 8,8 0 0 0 -2.92,-2.38 8.22,8.22 0 0 0 -3.69,-0.78 7.36,7.36 0 0 0 -2.85,0.53 7.26,7.26 0 0 0 -2.43,1.59 7.65,7.65 0 0 0 -2.18,5.74 7.6,7.6 0 0 0 2.18,5.75 7.36,7.36 0 0 0 5.24,2.08 8.57,8.57 0 0 0 3.79,-0.85 8.76,8.76 0 0 0 3,-2.45 v 4.37 a 11.78,11.78 0 0 1 -14.8,-0.9 10.66,10.66 0 0 1 -2.42,-3.62 10.49,10.49 0 0 1 -0.76,-4.29 10.76,10.76 0 0 1 0.77,-4.34 11.5,11.5 0 0 1 17.07,-4.79 z"
         id="path60"
         inkscape:connector-curvature="0"
         style="fill:#20232c" />
      <path
         class="cls-1"
         d="M 547.28,37.5 V 0.43 h 3.66 v 18.41 a 7.2,7.2 0 0 1 6,-2.95 6.82,6.82 0 0 1 6,2.9 c 0.81,1.18 1.22,3.07 1.22,5.65 V 37.5 h -3.66 v -13 a 6.41,6.41 0 0 0 -1,-3.87 4.08,4.08 0 0 0 -3.46,-1.53 4.61,4.61 0 0 0 -2,0.39 4.74,4.74 0 0 0 -1.67,1.24 c -1,1.19 -1.52,3.09 -1.52,5.7 v 11 z"
         id="path62"
         inkscape:connector-curvature="0"
         style="fill:#20232c" />
      <path
         class="cls-1"
         d="M 571.17,37.5 V 16.4 h 3.66 v 2.44 a 7.2,7.2 0 0 1 6,-2.95 6.82,6.82 0 0 1 6,2.9 c 0.82,1.19 1.22,3.07 1.22,5.65 V 37.5 h -3.66 v -13 a 6.34,6.34 0 0 0 -1,-3.87 4.15,4.15 0 0 0 -3.39,-1.49 4.68,4.68 0 0 0 -2,0.39 4.62,4.62 0 0 0 -1.66,1.24 q -1.53,1.79 -1.53,5.7 v 11 z"
         id="path64"
         inkscape:connector-curvature="0"
         style="fill:#20232c" />
      <path
         class="cls-1"
         d="m 612.94,35 a 11.75,11.75 0 0 1 -16,0 11.55,11.55 0 0 1 0,-15.92 11.75,11.75 0 0 1 16,0 11.55,11.55 0 0 1 0,15.92 z m -2.75,-13.73 a 7.44,7.44 0 0 0 -12.68,5.73 7.44,7.44 0 1 0 14.84,0 7.67,7.67 0 0 0 -2.16,-5.77 z"
         id="path66"
         inkscape:connector-curvature="0"
         style="fill:#20232c" />
      <path
         class="cls-1"
         d="m 621.71,0.43 h 3.66 V 37.5 h -3.66 z"
         id="path68"
         inkscape:connector-curvature="0"
         style="fill:#20232c" />
      <path
         class="cls-1"
         d="m 650.15,35 a 11.75,11.75 0 0 1 -16,0 11.55,11.55 0 0 1 0,-15.92 11.75,11.75 0 0 1 16,0 11.55,11.55 0 0 1 0,15.92 z M 647.4,21.23 a 7.44,7.44 0 0 0 -12.68,5.77 7.5,7.5 0 0 0 0.49,3.11 7.4,7.4 0 0 0 1.7,2.64 7.45,7.45 0 0 0 12.66,-5.75 7.61,7.61 0 0 0 -2.17,-5.77 z"
         id="path70"
         inkscape:connector-curvature="0"
         style="fill:#20232c" />
      <path
         class="cls-1"
         d="m 675.09,19.4 v -3 h 3.66 v 20.65 q 0,5.54 -2,8.28 -2.9,3.93 -8.44,3.92 A 10.11,10.11 0 0 1 660.79,46.4 9.19,9.19 0 0 1 658,39.59 h 3.6 a 6.35,6.35 0 0 0 1.67,4.41 6.58,6.58 0 0 0 2.32,1.57 6.51,6.51 0 0 0 2.76,0.44 6,6 0 0 0 5.59,-3.01 10.07,10.07 0 0 0 1.18,-5.36 v -3.1 a 8.76,8.76 0 0 1 -7.22,3.56 10,10 0 0 1 -7.28,-2.95 c -2,-2 -3,-4.71 -3,-8.23 0,-3.52 1,-6.24 3,-8.12 a 10.29,10.29 0 0 1 3.38,-2.19 10.09,10.09 0 0 1 3.95,-0.71 8.56,8.56 0 0 1 7.19,3.5 z m -6.82,-0.26 a 6.68,6.68 0 0 0 -4.9,2.06 7.88,7.88 0 0 0 -2,5.73 8.58,8.58 0 0 0 1.86,5.72 6.27,6.27 0 0 0 5,2.21 6.28,6.28 0 0 0 2.83,-0.55 6.21,6.21 0 0 0 2.29,-1.74 8.49,8.49 0 0 0 1.9,-5.59 7.65,7.65 0 0 0 -2.13,-5.8 7,7 0 0 0 -2.24,-1.51 6.89,6.89 0 0 0 -2.65,-0.53 z"
         id="path72"
         inkscape:connector-curvature="0"
         style="fill:#20232c" />
      <path
         class="cls-1"
         d="m 685.51,49.4 6.82,-13.88 -9.72,-19.12 h 4.17 l 7.48,15.1 6.86,-15.1 h 4.06 l -15.6,33 z"
         id="path74"
         inkscape:connector-curvature="0"
         style="fill:#20232c" />
      <path
         class="cls-1"
         d="m 93.860923,37.915188 v -21.1 h 3.630002 v 2.24 a 5.92,5.92 0 0 1 2.26,-2.07 6,6 0 0 1 2.999995,-0.68 6.28,6.28 0 0 1 3.39,0.86 6.36,6.36 0 0 1 2.41,2.55 7,7 0 0 1 2.7,-2.57 7.12,7.12 0 0 1 3.64,-0.84 c 4.59,0 6.87,2.75 6.87,8.24 v 13.41 h -3.65 v -12.82 a 15.67,15.67 0 0 0 -0.18,-2.56 3.9,3.9 0 0 0 -1.07,-2 3.26,3.26 0 0 0 -2.51,-1 q -4.69,0 -4.69,6.61 v 11.77 h -3.66 v -12.54 q 0,-5.85 -3.87,-5.85 -4.639995,0.03 -4.639995,6.85 v 11.5 z"
         id="path20-6"
         inkscape:connector-curvature="0"
         style="fill:#20232c" />
    </g>
  </g>
</svg>
