<svg xmlns="http://www.w3.org/2000/svg" viewBox="0 0 673.18 49.4"><defs><style>.cls-1{fill:#20232c;}</style></defs><title>Ресурс 4</title><g id="Слой_2" data-name="Слой 2"><g id="Слой_1-2" data-name="Слой 1"><path class="cls-1" d="M27.76,6.4v4.69a15.37,15.37,0,0,0-4.42-3.15A14.07,14.07,0,0,0,17.49,6.6a12.87,12.87,0,0,0-9.73,4.09,14.05,14.05,0,0,0-2.95,4.64,14.34,14.34,0,0,0-.94,5.42A12.75,12.75,0,0,0,8.12,30.87a14,14,0,0,0,9.43,3.71A13.56,13.56,0,0,0,23.85,33a14.82,14.82,0,0,0,3.91-2.85v4.7a17.17,17.17,0,0,1-10.21,3.3A17.66,17.66,0,0,1,5.07,8.1a17.08,17.08,0,0,1,12.64-5A16.08,16.08,0,0,1,27.76,6.4Z"/><path class="cls-1" d="M51.6,35a11.75,11.75,0,0,1-16,0,11.55,11.55,0,0,1,0-15.92,11.75,11.75,0,0,1,16,0A11.55,11.55,0,0,1,51.6,35ZM48.85,21.23A7.44,7.44,0,0,0,36.17,27a7.5,7.5,0,0,0,.49,3.11,7.4,7.4,0,0,0,1.7,2.64A7.43,7.43,0,0,0,51,27,7.63,7.63,0,0,0,48.85,21.23Z"/><path class="cls-1" d="M60.37,37.5V16.4H64v2.24a5.92,5.92,0,0,1,2.26-2.07,6,6,0,0,1,3-.68,6.28,6.28,0,0,1,3.39.86,6.36,6.36,0,0,1,2.41,2.55,7,7,0,0,1,2.7-2.57,7.12,7.12,0,0,1,3.64-.84c4.59,0,6.87,2.75,6.87,8.24V37.54H84.62V24.72a15.67,15.67,0,0,0-.18-2.56,3.9,3.9,0,0,0-1.07-2,3.26,3.26,0,0,0-2.51-1q-4.69,0-4.69,6.61V37.54H72.51V25q0-5.85-3.87-5.85Q64,19.18,64,26v11.5Z"/><path class="cls-1" d="M110.89,30.44l3,1.67a12,12,0,0,1-2.59,3.41,10.16,10.16,0,0,1-7,2.59A10.61,10.61,0,0,1,97,35.34q-3.08-2.78-3.07-8.26a11.76,11.76,0,0,1,2.77-8A9.45,9.45,0,0,1,100,16.64a9.34,9.34,0,0,1,4.08-.75,9.08,9.08,0,0,1,8,3.87,12.92,12.92,0,0,1,2,7.93H97.64a7.31,7.31,0,0,0,2,5.19,6.65,6.65,0,0,0,9,.48A8.2,8.2,0,0,0,110.89,30.44Zm-13-5.8h12.4a6.8,6.8,0,0,0-2.16-4,6.11,6.11,0,0,0-8.09.06,6.6,6.6,0,0,0-2.19,4Z"/><path class="cls-1" d="M119.65,37.5V16.4h3.66v2.29a5.42,5.42,0,0,1,4.78-2.8,7.23,7.23,0,0,1,3.25.87l-1.73,3.3a3.7,3.7,0,0,0-2.13-.71,3.51,3.51,0,0,0-3,1.34c-.82,1.09-1.22,3-1.22,5.7V37.52Z"/><path class="cls-1" d="M150,17.92V22.3a8.07,8.07,0,0,0-2.93-2.38,8.18,8.18,0,0,0-3.68-.78,7.29,7.29,0,0,0-2.85.53,7.16,7.16,0,0,0-2.43,1.59A7.56,7.56,0,0,0,135.92,27a7.58,7.58,0,0,0,2.19,5.75,7.36,7.36,0,0,0,5.23,2.08,8.47,8.47,0,0,0,6.81-3.3V35.9A11.78,11.78,0,0,1,135.33,35a10.7,10.7,0,0,1-3.18-7.91,10.8,10.8,0,0,1,3.21-8A11.72,11.72,0,0,1,150,17.92Z"/><path class="cls-1" d="M155.75,10.25A2.56,2.56,0,0,1,155.44,7a2.54,2.54,0,0,1,1.4-1,2.57,2.57,0,0,1,3,1.26,2.54,2.54,0,0,1,.25,1.71,2.59,2.59,0,0,1-.89,1.49,2.56,2.56,0,0,1-1.63.58,2.44,2.44,0,0,1-1-.19A2.51,2.51,0,0,1,155.75,10.25Zm0,6.15h3.66V37.5h-3.66Z"/><path class="cls-1" d="M182.49,19.4v-3h3.66V37.5h-3.66V34.56a8.75,8.75,0,0,1-7.24,3.55,9.85,9.85,0,0,1-3.94-.73A10,10,0,0,1,168,35.16q-3-2.94-3-8.23t3-8.11a10,10,0,0,1,7.3-2.93,8.58,8.58,0,0,1,7.24,3.51Zm-6.81-.26a6.68,6.68,0,0,0-4.91,2.06,7.88,7.88,0,0,0-2,5.73,8.57,8.57,0,0,0,1.85,5.72,7.14,7.14,0,0,0,2.31,1.65,6.89,6.89,0,0,0,7.86-1.73A8.42,8.42,0,0,0,182.69,27a7.65,7.65,0,0,0-2.14-5.8,7,7,0,0,0-2.23-1.51,6.88,6.88,0,0,0-2.64-.53Z"/><path class="cls-1" d="M193.06.43h3.64V37.5H193Z"/><path class="cls-1" d="M216.39,3.59h3.77V37.5h-3.77Z"/><path class="cls-1" d="M228,37.5V16.4h3.66v2.44a7.42,7.42,0,0,1,2.66-2.22,7.31,7.31,0,0,1,3.38-.73,6.79,6.79,0,0,1,6,2.9c.82,1.19,1.22,3.07,1.22,5.65V37.5h-3.66v-13a6.41,6.41,0,0,0-1-3.87,4.11,4.11,0,0,0-1.51-1.17,4,4,0,0,0-1.88-.36,4.67,4.67,0,0,0-2,.38,4.53,4.53,0,0,0-1.66,1.25q-1.53,1.77-1.53,5.69v11Z"/><path class="cls-1" d="M260.83,19.75h-5.19V37.5H252V19.75h-2V16.4h2V7.3q0-4.21,2-5.95A6.32,6.32,0,0,1,258.22,0a7.63,7.63,0,0,1,2.59.45V4a6.5,6.5,0,0,0-2.39-.45,2.45,2.45,0,0,0-1.33.23,2.55,2.55,0,0,0-1,.89,6.77,6.77,0,0,0-.46,3.05v8.72h5.19Z"/><path class="cls-1" d="M282,35a11.76,11.76,0,0,1-16,0,11.55,11.55,0,0,1,0-15.92,11.76,11.76,0,0,1,16,0A11.58,11.58,0,0,1,282,35Zm-2.75-13.73A7.44,7.44,0,0,0,266.52,27a7.44,7.44,0,1,0,14.85,0A7.67,7.67,0,0,0,279.21,21.23Z"/><path class="cls-1" d="M290.72,37.5V16.4h3.66v2.29a5.49,5.49,0,0,1,2-2.05,5.41,5.41,0,0,1,2.77-.75,7.31,7.31,0,0,1,3.26.87l-1.73,3.3a3.73,3.73,0,0,0-2.14-.71,3.51,3.51,0,0,0-2.95,1.34q-1.22,1.64-1.22,5.7V37.52Z"/><path class="cls-1" d="M305.77,37.5V16.4h3.66v2.24a6,6,0,0,1,5.24-2.75,6.25,6.25,0,0,1,5.79,3.41,7.1,7.1,0,0,1,6.36-3.41q6.85,0,6.86,8.24V37.54H330V24.72a16.85,16.85,0,0,0-.17-2.56,4,4,0,0,0-1.08-2,3.06,3.06,0,0,0-1.15-.75,3.16,3.16,0,0,0-1.36-.21q-4.69,0-4.69,6.61V37.54h-3.66V25q0-5.85-3.86-5.85-4.64,0-4.63,6.86v11.5Z"/><path class="cls-1" d="M356.76,19.4v-3h3.66V37.5h-3.66V34.56a8.76,8.76,0,0,1-3.17,2.66,8.62,8.62,0,0,1-4,.89,9.83,9.83,0,0,1-3.93-.73,10,10,0,0,1-3.33-2.22q-3-2.94-3-8.23t3-8.11a9.78,9.78,0,0,1,3.35-2.21,10,10,0,0,1,3.94-.72,8.6,8.6,0,0,1,4,.86A8.48,8.48,0,0,1,356.76,19.4ZM350,19.14a6.65,6.65,0,0,0-2.67.52A6.75,6.75,0,0,0,345,21.2a7.88,7.88,0,0,0-2,5.73,8.62,8.62,0,0,0,1.85,5.72,7.07,7.07,0,0,0,2.32,1.65,6.88,6.88,0,0,0,7.85-1.73A8.42,8.42,0,0,0,357,27a7.65,7.65,0,0,0-2.13-5.8,7,7,0,0,0-2.24-1.51,6.8,6.8,0,0,0-2.64-.53Z"/><path class="cls-1" d="M374.76,19.76H371.1V37.5h-3.66V19.76H365.2V16.4h2.24V8.77h3.66V16.4h3.66Z"/><path class="cls-1" d="M378.21,10.25a2.56,2.56,0,0,1-.73-1.58A2.58,2.58,0,0,1,379.31,6a2.58,2.58,0,0,1,3.27,3,2.63,2.63,0,0,1-.9,1.49A2.57,2.57,0,0,1,380,11a2.42,2.42,0,0,1-1-.19A2.66,2.66,0,0,1,378.21,10.25Zm0,6.15h3.67V37.5h-3.67Z"/><path class="cls-1" d="M406.66,35a11.75,11.75,0,0,1-16,0,11.55,11.55,0,0,1,0-15.92,11.75,11.75,0,0,1,16,0,11.55,11.55,0,0,1,0,15.92Zm-2.74-13.73A7.44,7.44,0,0,0,391.23,27a7.67,7.67,0,0,0,.49,3.11,7.4,7.4,0,0,0,1.7,2.64A7.43,7.43,0,0,0,406.07,27,7.66,7.66,0,0,0,403.92,21.23Z"/><path class="cls-1" d="M415.43,37.5V16.4h3.66v2.44a7.21,7.21,0,0,1,2.65-2.22,7.38,7.38,0,0,1,3.39-.73,6.79,6.79,0,0,1,6,2.9c.81,1.18,1.22,3.07,1.22,5.65V37.5h-3.66v-13a6.34,6.34,0,0,0-1-3.87,4.15,4.15,0,0,0-3.45-1.53,4.63,4.63,0,0,0-2.05.39,4.74,4.74,0,0,0-1.67,1.24q-1.51,1.79-1.52,5.7v11Z"/><path class="cls-1" d="M468.66,7.14h-8.24V37.5h-3.76V7.14h-8.24V3.59h20.24Z"/><path class="cls-1" d="M484.22,30.44l3,1.67a12.51,12.51,0,0,1-2.59,3.41,10.16,10.16,0,0,1-7,2.59,10.61,10.61,0,0,1-7.38-2.77q-3.07-2.78-3.07-8.26a11.76,11.76,0,0,1,2.77-8,9.41,9.41,0,0,1,7.45-3.18,9.09,9.09,0,0,1,8,3.87,13,13,0,0,1,2,7.93H471a7.28,7.28,0,0,0,2,5.19,6.47,6.47,0,0,0,2.15,1.5,6.39,6.39,0,0,0,2.58.51,6.55,6.55,0,0,0,4.32-1.53A8.28,8.28,0,0,0,484.22,30.44Zm-13-5.8h12.4a6.8,6.8,0,0,0-2.16-4,6.11,6.11,0,0,0-8.09.06A6.48,6.48,0,0,0,471.26,24.64Z"/><path class="cls-1" d="M509.53,17.92V22.3a8,8,0,0,0-2.92-2.38,8.22,8.22,0,0,0-3.69-.78,7.36,7.36,0,0,0-2.85.53,7.26,7.26,0,0,0-2.43,1.59A7.65,7.65,0,0,0,495.46,27a7.6,7.6,0,0,0,2.18,5.75,7.36,7.36,0,0,0,5.24,2.08,8.57,8.57,0,0,0,3.79-.85,8.76,8.76,0,0,0,3-2.45V35.9A11.78,11.78,0,0,1,494.87,35a10.66,10.66,0,0,1-2.42-3.62,10.49,10.49,0,0,1-.76-4.29,10.76,10.76,0,0,1,.77-4.34,11.5,11.5,0,0,1,17.07-4.79Z"/><path class="cls-1" d="M515.28,37.5V.43h3.66V18.84a7.2,7.2,0,0,1,6-2.95,6.82,6.82,0,0,1,6,2.9c.81,1.18,1.22,3.07,1.22,5.65V37.5h-3.66v-13a6.41,6.41,0,0,0-1-3.87,4.08,4.08,0,0,0-3.46-1.53,4.61,4.61,0,0,0-2,.39,4.74,4.74,0,0,0-1.67,1.24c-1,1.19-1.52,3.09-1.52,5.7v11Z"/><path class="cls-1" d="M539.17,37.5V16.4h3.66v2.44a7.2,7.2,0,0,1,6-2.95,6.82,6.82,0,0,1,6,2.9c.82,1.19,1.22,3.07,1.22,5.65V37.5h-3.66v-13a6.34,6.34,0,0,0-1-3.87A4.15,4.15,0,0,0,548,19.14a4.68,4.68,0,0,0-2,.39,4.62,4.62,0,0,0-1.66,1.24q-1.53,1.79-1.53,5.7v11Z"/><path class="cls-1" d="M580.94,35a11.75,11.75,0,0,1-16,0,11.55,11.55,0,0,1,0-15.92,11.75,11.75,0,0,1,16,0,11.55,11.55,0,0,1,0,15.92Zm-2.75-13.73A7.44,7.44,0,0,0,565.51,27a7.44,7.44,0,1,0,14.84,0A7.67,7.67,0,0,0,578.19,21.23Z"/><path class="cls-1" d="M589.71.43h3.66V37.5h-3.66Z"/><path class="cls-1" d="M618.15,35a11.75,11.75,0,0,1-16,0,11.55,11.55,0,0,1,0-15.92,11.75,11.75,0,0,1,16,0,11.55,11.55,0,0,1,0,15.92ZM615.4,21.23A7.44,7.44,0,0,0,602.72,27a7.5,7.5,0,0,0,.49,3.11,7.4,7.4,0,0,0,1.7,2.64A7.45,7.45,0,0,0,617.57,27,7.61,7.61,0,0,0,615.4,21.23Z"/><path class="cls-1" d="M643.09,19.4v-3h3.66V37.05q0,5.54-2,8.28-2.9,3.93-8.44,3.92a10.11,10.11,0,0,1-7.52-2.85A9.19,9.19,0,0,1,626,39.59h3.6A6.35,6.35,0,0,0,631.27,44a6.58,6.58,0,0,0,2.32,1.57,6.51,6.51,0,0,0,2.76.44A6,6,0,0,0,641.94,43a10.07,10.07,0,0,0,1.18-5.36v-3.1a8.76,8.76,0,0,1-7.22,3.56,10,10,0,0,1-7.28-2.95c-2-2-3-4.71-3-8.23s1-6.24,3-8.12A10.29,10.29,0,0,1,632,16.61a10.09,10.09,0,0,1,3.95-.71,8.56,8.56,0,0,1,7.19,3.5Zm-6.82-.26a6.68,6.68,0,0,0-4.9,2.06,7.88,7.88,0,0,0-2,5.73,8.58,8.58,0,0,0,1.86,5.72,6.27,6.27,0,0,0,5,2.21,6.28,6.28,0,0,0,2.83-.55,6.21,6.21,0,0,0,2.29-1.74,8.49,8.49,0,0,0,1.9-5.59,7.65,7.65,0,0,0-2.13-5.8,7,7,0,0,0-2.24-1.51,6.89,6.89,0,0,0-2.65-.53Z"/><path class="cls-1" d="M653.51,49.4l6.82-13.88L650.61,16.4h4.17l7.48,15.1,6.86-15.1h4.06l-15.6,33Z"/></g></g></svg>