<svg xmlns="http://www.w3.org/2000/svg" viewBox="0 0 426.76 103.87"><defs><style>.cls-1{fill:#20232c;}.cls-2{fill:#ffce00;}</style></defs><title>Ресурс 3</title><g id="Слой_2" data-name="Слой 2"><g id="Слой_1-2" data-name="Слой 1"><path class="cls-1" d="M76.87,75.4V98.05a51.87,51.87,0,0,1-24.58,5.81q-21.75,0-36.35-13.86Q0,74.67,0,52,0,27.86,15.94,13.12,29.94,0,52.44,0A50.68,50.68,0,0,1,76.87,6.11V28.76q-9.68-11.18-24-11.17-14.61,0-23.76,10.2A35.5,35.5,0,0,0,20,52.31Q20,68,30.09,77.12a34,34,0,0,0,23.54,9.13A29.2,29.2,0,0,0,76.87,75.4Z"/><path class="cls-1" d="M97.43,2.23H116.8v99.4H97.43Z"/><path class="cls-1" d="M195.75,18.93H173.41v82.7H154V18.93H131.69V2.23h64.06Z"/><path class="cls-1" d="M243.26,2.82H253v98.81h-9.75Z"/><path class="cls-1" d="M314.52,53.4v-8h9.76V101.6h-9.76V93.76a23.1,23.1,0,0,1-19.24,9.49,26.56,26.56,0,0,1-19.38-7.86q-8-7.86-8-22,0-13.82,7.93-21.61A26.59,26.59,0,0,1,295.28,44Q307.48,44,314.52,53.4Zm-18.16-.67a17.54,17.54,0,0,0-13.07,5.48q-5.35,5.49-5.36,15.25,0,9.36,4.95,15.25t13.48,5.9A16.84,16.84,0,0,0,310,88.51a22.52,22.52,0,0,0,5.08-14.91q0-10-5.69-15.42a18.76,18.76,0,0,0-13-5.45Z"/><path class="cls-1" d="M352.47,93.76v7.87h-9.76V2.82h9.76V53.25A23.58,23.58,0,0,1,371.71,44q12.62,0,20,8.88a31.79,31.79,0,0,1,7.37,20.94,31,31,0,0,1-7.32,20.79q-7.32,8.58-19.65,8.6T352.47,93.76Zm18.29.82a16.41,16.41,0,0,0,13.28-6,22.24,22.24,0,0,0,5-14.71q0-9.75-5.56-15.42a17.61,17.61,0,0,0-12.87-5.69,17.91,17.91,0,0,0-13,5.69q-5.7,5.7-5.69,15.32a21.84,21.84,0,0,0,5.22,14.83A17,17,0,0,0,370.76,94.58Z"/><path class="cls-2" d="M415.47,101a6.56,6.56,0,0,1-1.8-4,6.47,6.47,0,0,1,1.13-4.25,6.54,6.54,0,1,1,2.84,9.76A6.76,6.76,0,0,1,415.47,101Z"/></g></g></svg>