<svg width="24" height="25" viewBox="0 0 24 25" fill="none" xmlns="http://www.w3.org/2000/svg">
<g clip-path="url(#clip0)">
<path d="M13.6203 24.9512H9.76944C9.12622 24.9512 8.60298 24.4072 8.60298 23.7385V14.7083H6.35628C5.71306 14.7083 5.18982 14.1642 5.18982 13.4956V9.6262C5.18982 8.95748 5.71306 8.41351 6.35628 8.41351H8.60298V6.47583C8.60298 4.55456 9.18328 2.91996 10.2809 1.74904C11.3836 0.572777 12.9245 -0.0488281 14.7371 -0.0488281L17.674 -0.043869C18.3161 -0.0427246 18.8384 0.501251 18.8384 1.16882V4.76151C18.8384 5.43022 18.3154 5.9742 17.6723 5.9742L15.695 5.97496C15.0919 5.97496 14.9384 6.10066 14.9055 6.13918C14.8514 6.20308 14.787 6.38371 14.787 6.88248V8.41332H17.5237C17.7298 8.41332 17.9294 8.46615 18.1009 8.56571C18.4709 8.78067 18.701 9.18713 18.701 9.62639L18.6995 13.4958C18.6995 14.1642 18.1763 14.7081 17.5331 14.7081H14.787V23.7385C14.787 24.4072 14.2636 24.9512 13.6203 24.9512ZM10.0127 23.4856H13.3771V14.0522C13.3771 13.6057 13.7266 13.2425 14.1559 13.2425H17.2898L17.2911 9.87911H14.1557C13.7264 9.87911 13.3771 9.51595 13.3771 9.06944V6.88248C13.3771 6.30989 13.433 5.65872 13.8488 5.1693C14.3511 4.57764 15.1427 4.50935 15.6946 4.50935L17.4287 4.50859V1.42136L14.736 1.41678C11.823 1.41678 10.0127 3.35541 10.0127 6.47583V9.06944C10.0127 9.51576 9.6634 9.87911 9.2341 9.87911H6.59956V13.2425H9.2341C9.6634 13.2425 10.0127 13.6057 10.0127 14.0522V23.4856ZM17.6712 1.42174H17.6714H17.6712Z" fill="white"/>
</g>
<defs>
<clipPath id="clip0">
<rect width="24" height="25" fill="white"/>
</clipPath>
</defs>
</svg>
