<svg xmlns="http://www.w3.org/2000/svg" width="5" viewBox="0 0 206.14 630.61"><defs><style>.cls-1{fill:#ffce00;}.cls-2{fill:#20232c;}</style></defs><title>Ресурс 1</title><g id="lamp-svg" data-name="Слой 2"><g id="Слой_1-2" data-name="Слой 1"><path class="cls-1" d="M153.77,407.09V366H52.31v41.15a62.71,62.71,0,0,1-20,45.5A102.84,102.84,0,0,0,.12,532.51C2.61,585,45,627.65,97.44,630.46A103,103,0,0,0,173,451.87,60.8,60.8,0,0,1,153.77,407.09ZM99.25,605.62A78.14,78.14,0,0,1,52.31,468.08c.61-.53,1.22-1,1.85-1.53a63,63,0,0,0,23-49.08V390.86h51.69v26.61a62.85,62.85,0,0,0,23,49.07c.62.5,1.24,1,1.84,1.53A78.16,78.16,0,0,1,99.25,605.61Z"/><path class="cls-2" d="M172.5,357.78H33.59V332.89H172.5Z"/><path class="cls-2" d="M148.39,324.62H57.7V299.73l12.44,0h78.25Z"/><path class="cls-2" d="M108.57,0H97.51V312.17h11.06Z"/></g></g></svg>