<?xml version="1.0" encoding="utf-8"?>
<!-- Generator: Adobe Illustrator 24.0.2, SVG Export Plug-In . SVG Version: 6.00 Build 0)  -->
<svg version="1.1" id="Слой_1" xmlns="http://www.w3.org/2000/svg" xmlns:xlink="http://www.w3.org/1999/xlink" x="0px" y="0px"
	 viewBox="0 0 206.14 630.61" style="enable-background:new 0 0 207 632;" xml:space="preserve">
<style type="text/css">
	.st0{fill:#FFCE00;}
	.st1{fill:#F2F2F2;}
</style>
<path class="st0" d="M154.1,408.2v-41.1H52.7v41.1c0,17.3-7.4,33.6-20,45.5c-10.8,10.2-19.3,22.6-24.9,36.4
	c-5.6,13.8-8.1,28.6-7.3,43.5c2.5,52.5,44.8,95.1,97.3,98c59.4,3.2,108.7-44.3,108.7-102.9c0-14.2-2.9-28.3-8.6-41.3
	c-5.7-13-14-24.7-24.5-34.4C160.9,441.5,154.1,425.1,154.1,408.2z M99.6,606.7c-39.6-1.9-71.8-33.7-74.2-73.2
	c-0.8-12.1,1.3-24.2,6-35.4c4.7-11.2,12-21.1,21.3-29c0.6-0.5,1.2-1,1.8-1.5c14.7-11.9,23-30.1,23-49.1V392h51.7v26.6
	c0,19,8.3,37.2,23,49.1c0.6,0.5,1.2,1,1.8,1.5c12.4,10.6,21.2,24.8,25.1,40.6c3.9,15.8,2.8,32.5-3.2,47.7
	c-6,15.2-16.6,28.1-30.3,36.9C132,603.2,115.9,607.5,99.6,606.7L99.6,606.7z"/>
<path class="st1" d="M172.9,358.9H34V334l12.4,0h126.5V358.9z"/>
<path class="st1" d="M148.8,325.7H58.1v-24.9l12.4,0h78.3V325.7z"/>
<path class="st1" d="M109.6,1.1H97.2v312.2h12.4V1.1z"/>
</svg>
