<svg width="751" height="480" viewBox="0 0 751 480" fill="none" xmlns="http://www.w3.org/2000/svg">
    <g clip-path="url(#clip0)">
        <path d="M747.33 204.95C719.07 169.943 690.797 134.943 662.51 99.95C659.902 96.7062 657.018 93.6949 653.89 90.95C651.914 89.1419 649.533 87.8348 646.948 87.1387C644.362 86.4426 641.646 86.3779 639.03 86.95C630.03 88.67 620.96 89.87 611.93 91.38C584.363 96.0266 556.797 100.683 529.23 105.35C520.16 106.9 514.61 110.73 522.55 121.73C543.02 150.09 563.01 178.8 583.18 207.39C586.8 212.51 590.37 217.67 594.18 223.14C594.424 223.492 594.581 223.896 594.639 224.32C594.697 224.744 594.654 225.176 594.514 225.581C594.374 225.985 594.14 226.351 593.832 226.648C593.523 226.945 593.149 227.165 592.74 227.29C591.74 227.58 590.88 227.84 589.97 228.06C517.643 245.393 445.31 262.757 372.97 280.15C368.97 281.15 367.08 280.07 365.06 276.67C338.32 231.723 311.497 186.823 284.59 141.97C256.29 94.65 227.87 47.4 199.76 -0.0300407H171.01C224.803 93.15 278.69 186.277 332.67 279.35C333.25 280.35 333.87 281.35 334.4 282.35C337.01 287.35 336.25 289.06 330.68 290.4C316.12 293.887 301.553 297.36 286.98 300.82L194.7 322.75L194.26 322.85C192.835 323.194 191.336 323.052 190.001 322.447C188.666 321.842 187.571 320.808 186.89 319.51V319.46C163.51 271.22 140.177 222.96 116.89 174.68C89.33 117.9 61.75 61.1233 34.15 4.34996C33.79 3.59996 33.42 2.85996 33.09 2.08996C32.7856 1.39471 32.5185 0.683701 32.29 -0.0400391H0C1.44 3.89996 3.11 7.77996 4.86 11.58C55.0267 120.467 105.253 229.323 155.54 338.15C163.82 356.09 176.02 362.15 195.25 357.21C246.05 344.27 296.81 331.177 347.53 317.93C351.67 316.85 353.64 317.55 355.76 321.36C378.947 362.96 402.28 404.49 425.76 445.95C430.43 454.19 435.61 462.18 441.03 469.95C447.2 478.8 456.03 481.05 466.21 478.39C472.01 476.88 477.8 475.29 483.44 473.3C527.073 457.887 570.683 442.407 614.27 426.86C651.09 413.647 687.847 400.267 724.54 386.72C737.26 382.01 738.17 378.26 730.15 367.44C700.99 328.107 671.787 288.773 642.54 249.44C642 248.72 641.54 247.96 640.97 247.14C640.782 246.848 640.665 246.515 640.63 246.17C640.594 245.824 640.64 245.475 640.765 245.15C640.89 244.826 641.089 244.535 641.347 244.302C641.605 244.07 641.915 243.901 642.25 243.81L679.57 233.86C700.48 228.27 721.4 222.74 742.27 217.03C750.93 214.72 752.32 211.12 747.33 204.95ZM691.9 355.16C696.77 361.86 696.43 363.11 688.45 365.82C615.663 390.6 542.877 415.373 470.09 440.14C465.65 441.66 462.17 440.7 459.54 437.05C456.91 433.4 454.45 429.64 452.19 425.77C430.27 388.23 408.393 350.673 386.56 313.1C386.15 312.4 385.79 311.67 385.4 310.83C385.269 310.557 385.199 310.259 385.196 309.957C385.193 309.654 385.256 309.355 385.381 309.079C385.506 308.804 385.689 308.559 385.919 308.362C386.149 308.165 386.419 308.021 386.71 307.94C390.15 306.94 393.36 306.05 396.59 305.21C467.43 286.737 538.267 268.253 609.1 249.76C613.1 248.76 615.35 249.87 617.56 252.91C642.313 287.023 667.093 321.107 691.9 355.16ZM710.29 198.64C704.39 200.38 698.37 201.69 692.39 203.17C670.1 208.66 647.78 214.06 625.53 219.73C621.88 220.66 619.81 220.02 617.59 216.95C596.697 188.07 575.723 159.253 554.67 130.5C550.29 124.5 550.8 123.5 558.15 122.17C585.17 117.343 612.17 112.473 639.15 107.56H639.26C640.659 107.305 642.096 107.352 643.476 107.697C644.855 108.042 646.145 108.677 647.26 109.56C648.325 110.364 649.291 111.291 650.14 112.32C667.83 134.64 685.36 157.09 702.95 179.49C706.14 183.56 709.39 187.57 712.54 191.66C715.56 195.53 715.14 197.21 710.29 198.64Z" fill="#FB503B"/>
    </g>
    <defs>
        <clipPath id="clip0">
            <rect width="750.21" height="479.48" fill="white"/>
        </clipPath>
    </defs>
</svg>
