<svg width="25" height="25" viewBox="0 0 25 25" fill="none" xmlns="http://www.w3.org/2000/svg">
<path d="M6.46286 7.40356H2.24838C1.77593 7.40356 1.3916 7.78789 1.3916 8.26034V24.1434C1.3916 24.6156 1.77593 25 2.24838 25H6.46286C6.93512 25 7.31945 24.6156 7.31945 24.1434V8.26034C7.31945 7.78789 6.93512 7.40356 6.46286 7.40356ZM5.85251 23.533H2.85854V8.8705H5.85251V23.533Z" fill="white"/>
<path d="M4.35562 0C2.70767 0 1.36719 1.34048 1.36719 2.98824C1.36719 4.63618 2.70767 5.97667 4.35562 5.97667C6.00319 5.97667 7.34386 4.63618 7.34386 2.98824C7.34386 1.34048 6.00338 0 4.35562 0ZM4.35562 4.50973C3.51658 4.50973 2.83413 3.82728 2.83413 2.98824C2.83413 2.14939 3.51658 1.46694 4.35562 1.46694C5.19447 1.46694 5.87692 2.14939 5.87692 2.98824C5.87692 3.82709 5.19447 4.50973 4.35562 4.50973Z" fill="white"/>
<path d="M20.9496 9.2657C19.9421 8.42475 18.6613 7.975 17.3445 7.99941C16.5266 8.01448 15.7274 8.2117 15.0032 8.56875V8.222C15.0032 7.77015 14.6368 7.40375 14.185 7.40375H9.8938C9.44195 7.40375 9.07555 7.77015 9.07555 8.222V24.1817C9.07555 24.6338 9.44195 25 9.8938 25H14.2696C14.6748 25 15.0032 24.6715 15.0032 24.2666V14.751C15.0032 13.9364 15.6406 13.2471 16.4547 13.2229C17.3008 13.1979 17.997 13.8786 17.997 14.7192V24.2818C17.997 24.6784 18.3186 25 18.7151 25H22.9206C23.3171 25 23.6387 24.6784 23.6387 24.2818V15.01C23.6387 12.7861 22.6585 10.6922 20.9496 9.2657ZM22.1718 23.533H19.4641V14.7192C19.4641 13.085 18.1345 11.7554 16.5001 11.7554C14.8659 11.7554 13.5363 13.085 13.5363 14.7192V23.533H10.5425V8.8705H13.5363V9.93651H13.5372C13.537 10.1093 13.5971 10.2829 13.7207 10.4227C13.9891 10.726 14.4527 10.7542 14.756 10.4856C15.4787 9.84591 16.4076 9.4839 17.3716 9.46597C18.3365 9.44766 19.273 9.77687 20.0096 10.3918C21.3839 11.5389 22.1718 13.2221 22.1718 15.01V23.533Z" fill="white"/>
</svg>
