<svg width="19" height="19" viewBox="0 0 19 19" fill="none" xmlns="http://www.w3.org/2000/svg">
<g clip-path="url(#clip0)">
<path d="M4.91177 5.62695H1.70877C1.34971 5.62695 1.05762 5.91904 1.05762 6.27811V18.3492C1.05762 18.7081 1.34971 19.0002 1.70877 19.0002H4.91177C5.27069 19.0002 5.56278 18.7081 5.56278 18.3492V6.27811C5.56278 5.91904 5.27069 5.62695 4.91177 5.62695ZM4.44791 17.8853H2.17249V6.74183H4.44791V17.8853Z" fill="#20232C"/>
<path d="M3.31027 0C2.05783 0 1.03906 1.01877 1.03906 2.27106C1.03906 3.5235 2.05783 4.54227 3.31027 4.54227C4.56242 4.54227 5.58134 3.5235 5.58134 2.27106C5.58134 1.01877 4.56257 0 3.31027 0ZM3.31027 3.42739C2.6726 3.42739 2.15394 2.90873 2.15394 2.27106C2.15394 1.63353 2.6726 1.11487 3.31027 1.11487C3.9478 1.11487 4.46646 1.63353 4.46646 2.27106C4.46646 2.90859 3.9478 3.42739 3.31027 3.42739Z" fill="#20232C"/>
<path d="M15.9217 7.04204C15.156 6.40291 14.1826 6.0611 13.1818 6.07966C12.5602 6.09111 11.9528 6.241 11.4024 6.51236V6.24882C11.4024 5.90542 11.124 5.62695 10.7806 5.62695H7.51929C7.17588 5.62695 6.89742 5.90542 6.89742 6.24882V18.3782C6.89742 18.7218 7.17588 19.0001 7.51929 19.0001H10.8449C11.1528 19.0001 11.4024 18.7505 11.4024 18.4427V11.2109C11.4024 10.5918 11.8869 10.0679 12.5056 10.0495C13.1486 10.0305 13.6777 10.5479 13.6777 11.1867V18.4543C13.6777 18.7557 13.9221 19.0001 14.2235 19.0001H17.4197C17.721 19.0001 17.9654 18.7557 17.9654 18.4543V11.4077C17.9654 9.71753 17.2205 8.12618 15.9217 7.04204ZM16.8506 17.8852H14.7927V11.1867C14.7927 9.94468 13.7822 8.93418 12.5401 8.93418C11.2981 8.93418 10.2876 9.94468 10.2876 11.1867V17.8852H8.01229V6.74168H10.2876V7.55185H10.2883C10.2881 7.68319 10.3338 7.8151 10.4277 7.92135C10.6317 8.15184 10.9841 8.17329 11.2146 7.96919C11.7638 7.483 12.4698 7.20787 13.2024 7.19424C13.9357 7.18033 14.6475 7.43052 15.2073 7.89787C16.2517 8.76965 16.8506 10.0489 16.8506 11.4077V17.8852Z" fill="#20232C"/>
</g>
<defs>
<clipPath id="clip0">
<rect width="19" height="19" fill="white"/>
</clipPath>
</defs>
</svg>
