<svg width="16" height="23" viewBox="0 0 16 23" fill="none" xmlns="http://www.w3.org/2000/svg">
<path d="M8.04187 22.9551L7.57536 22.4322C7.50826 22.3571 5.91446 20.5632 4.22144 18.0239C1.9235 14.577 0.623839 11.5546 0.358795 9.04018C0.314901 8.67677 0.293543 8.3495 0.293543 8.03979C0.293543 3.58199 3.76955 -0.0449219 8.04204 -0.0449219C12.3132 -0.0449219 15.7892 3.58129 15.7905 8.03838C15.7905 8.3395 15.7697 8.66255 15.7266 9.02579C15.4675 11.5411 14.1695 14.5664 11.8685 18.0179C10.1733 20.5604 8.57566 22.3571 8.50856 22.4323L8.04187 22.9551ZM8.04204 1.28554C4.47269 1.28554 1.56865 4.31566 1.56865 8.03996C1.56865 8.29475 1.58698 8.5692 1.62465 8.87874L1.62583 8.88997C2.10967 13.5048 6.57219 19.2092 8.04221 20.9778C9.51425 19.208 13.9867 13.4945 14.4593 8.87856L14.4606 8.86733C14.4979 8.55253 14.5154 8.28914 14.5154 8.03856C14.5143 4.31513 11.6102 1.28554 8.04204 1.28554ZM8.04204 13.4778C5.16844 13.4778 2.83046 11.0383 2.83046 8.03996C2.83046 5.0416 5.16844 2.60213 8.04204 2.60213C10.915 2.60213 13.2523 5.0416 13.2523 8.03996C13.2523 11.0383 10.915 13.4778 8.04204 13.4778ZM8.04204 3.93277C5.87158 3.93277 4.10574 5.77527 4.10574 8.03996C4.10574 10.3047 5.87158 12.1472 8.04204 12.1472C10.2118 12.1472 11.9772 10.3047 11.9772 8.03996C11.9772 5.77527 10.2118 3.93277 8.04204 3.93277Z" fill="#20232C"/>
</svg>
