<svg width="181" height="257" viewBox="0 0 181 257" fill="none" xmlns="http://www.w3.org/2000/svg">
<path d="M90.4873 256.498L85.0587 250.655C84.2779 249.816 65.7319 229.771 46.0313 201.397C19.2916 162.882 4.1683 129.11 1.08416 101.014C0.573392 96.9534 0.32486 93.2966 0.32486 89.8359C0.32486 40.0249 40.773 -0.501953 90.4892 -0.501953C140.19 -0.501953 180.638 40.017 180.654 89.8202C180.654 93.1849 180.411 96.7946 179.91 100.853C176.894 128.959 161.791 162.764 135.016 201.33C115.29 229.74 96.6986 249.816 95.9178 250.657L90.4873 256.498ZM90.4892 14.3645C48.955 14.3645 15.1624 48.2228 15.1624 89.8379C15.1624 92.6849 15.3757 95.7515 15.8141 99.2103L15.8278 99.3358C21.4579 150.902 73.3855 214.642 90.4912 234.404C107.62 214.628 159.663 150.786 165.162 99.2083L165.178 99.0828C165.613 95.5652 165.816 92.6221 165.816 89.8222C165.802 48.2169 132.01 14.3645 90.4892 14.3645ZM90.4892 150.6C57.0509 150.6 29.8454 123.341 29.8454 89.8379C29.8454 56.3344 57.0509 29.076 90.4892 29.076C123.92 29.076 151.117 56.3344 151.117 89.8379C151.117 123.341 123.92 150.6 90.4892 150.6ZM90.4892 43.9444C65.2329 43.9444 44.6849 64.5324 44.6849 89.8379C44.6849 115.143 65.2329 135.731 90.4892 135.731C115.738 135.731 136.28 115.143 136.28 89.8379C136.28 64.5324 115.738 43.9444 90.4892 43.9444Z" fill="#FFCE00"/>
</svg>
