<?xml version="1.0" encoding="UTF-8" standalone="no"?>
<!DOCTYPE svg PUBLIC "-//W3C//DTD SVG 1.1//EN" "http://www.w3.org/Graphics/SVG/1.1/DTD/svg11.dtd">
<svg version="1.1" xmlns="http://www.w3.org/2000/svg" xmlns:xlink="http://www.w3.org/1999/xlink" preserveAspectRatio="xMidYMid meet" width="127" height="25"><defs><path d="M87.76 0.36L43.96 0.36L43.96 6.28L49.8 6.28L49.8 8.56L35.81 8.56L35.81 6.28L41.64 6.28L41.64 0.36L30.84 0.36L30.84 8.56L28.52 8.56L28.52 0.36L10.64 0.36L10.64 6.28L20.95 6.28L20.95 4.34L23.27 4.34L23.27 8.56L8.33 8.56L8.33 0.36L0 0.36L0 24.75L8.33 24.75L8.33 16.91L23.27 16.91L23.27 21.06L20.95 21.06L20.95 19.18L10.64 19.18L10.64 24.75L28.52 24.75L28.52 16.91L30.84 16.91L30.84 24.75L41.64 24.75L41.64 16.91L43.96 16.91L43.96 24.75L87.76 24.75L87.76 0.36Z" id="bpPtjyyly"></path><path d="M90.31 24.78L90.31 0.41L87.86 0.41L87.86 24.78L90.31 24.78Z" id="k4j61YZ49e"></path><path d="M101.98 0.08L102.48 0.18L102.95 0.31L103.41 0.49L103.85 0.7L104.27 0.95L104.67 1.24L105.05 1.57L105.42 1.94L105.76 2.35L105.76 0.41L108.21 0.41L108.21 14.28L105.76 14.28L105.76 12.31L105.43 12.71L105.07 13.07L104.7 13.4L104.3 13.68L103.88 13.93L103.45 14.14L102.98 14.31L102.5 14.44L102 14.54L101.47 14.59L100.93 14.61L100.41 14.59L99.91 14.54L99.42 14.46L98.94 14.35L98.48 14.21L98.04 14.04L97.61 13.83L97.2 13.59L96.8 13.32L96.41 13.02L96.04 12.69L95.7 12.33L95.39 11.94L95.11 11.53L94.86 11.1L94.65 10.64L94.46 10.15L94.32 9.64L94.2 9.11L94.12 8.55L94.07 7.97L94.05 7.36L94.07 6.74L94.12 6.14L94.2 5.58L94.32 5.03L94.47 4.51L94.65 4.02L94.87 3.56L95.12 3.11L95.4 2.7L95.71 2.31L96.06 1.94L96.43 1.61L96.82 1.3L97.22 1.03L97.63 0.79L98.06 0.58L98.5 0.41L98.96 0.26L99.43 0.15L99.92 0.07L100.42 0.02L100.93 0L101.46 0.02L101.98 0.08ZM99.87 2.31L99.28 2.51L98.74 2.79L98.25 3.15L97.81 3.6L97.43 4.11L97.12 4.66L96.88 5.27L96.71 5.92L96.61 6.61L96.57 7.36L96.61 8.13L96.72 8.85L96.91 9.5L97.17 10.1L97.5 10.64L97.92 11.12L98.13 11.33L98.37 11.53L98.61 11.71L98.87 11.87L99.13 12.01L99.41 12.14L99.7 12.25L99.99 12.33L100.29 12.4L100.59 12.45L100.89 12.47L101.2 12.48L101.8 12.44L102.38 12.33L102.94 12.14L103.47 11.89L103.98 11.55L104.47 11.14L104.9 10.66L105.26 10.12L105.54 9.52L105.74 8.85L105.86 8.12L105.9 7.33L105.86 6.62L105.76 5.95L105.58 5.32L105.33 4.73L105.01 4.17L104.62 3.65L104.17 3.19L103.67 2.81L103.13 2.52L102.53 2.31L101.89 2.19L101.2 2.14L100.51 2.18L99.87 2.31Z" id="a18TwFF2mr"></path><path d="M121.04 0.04L121.42 0.08L121.8 0.15L122.16 0.23L122.51 0.34L122.85 0.46L123.18 0.6L123.49 0.76L123.8 0.94L124.1 1.14L124.38 1.36L124.65 1.59L124.92 1.85L125.17 2.12L125.4 2.41L125.62 2.71L125.83 3.01L126.01 3.32L126.19 3.64L126.34 3.96L126.48 4.3L126.6 4.64L126.71 4.99L126.8 5.35L126.87 5.72L126.93 6.09L126.97 6.47L126.99 6.86L127 7.26L126.99 7.65L126.97 8.04L126.93 8.42L126.87 8.79L126.8 9.15L126.71 9.51L126.6 9.86L126.47 10.21L126.33 10.54L126.18 10.87L126 11.2L125.82 11.51L125.61 11.82L125.39 12.13L125.15 12.42L124.89 12.7L124.63 12.97L124.35 13.21L124.07 13.43L123.77 13.64L123.45 13.82L123.13 13.99L122.8 14.14L122.45 14.26L122.09 14.37L121.72 14.46L121.34 14.52L120.95 14.57L120.54 14.6L120.13 14.61L119.74 14.6L119.36 14.57L118.99 14.52L118.63 14.45L118.28 14.36L117.93 14.25L117.6 14.12L117.28 13.97L116.97 13.79L116.66 13.6L116.37 13.39L116.09 13.16L115.81 12.9L115.55 12.63L115.3 12.34L115.3 24.78L112.84 24.78L112.84 0.41L115.3 0.41L115.3 2.35L115.55 2.05L115.81 1.76L116.08 1.5L116.36 1.27L116.66 1.05L116.97 0.85L117.28 0.67L117.61 0.51L117.95 0.38L118.31 0.26L118.67 0.17L119.04 0.1L119.43 0.04L119.83 0.01L120.23 0L120.64 0.01L121.04 0.04ZM119.21 2.19L118.57 2.31L117.98 2.52L117.43 2.81L116.93 3.18L116.47 3.63L116.07 4.15L115.74 4.7L115.49 5.29L115.3 5.92L115.2 6.59L115.16 7.29L115.2 8.06L115.32 8.77L115.52 9.43L115.79 10.03L116.15 10.58L116.59 11.07L117.08 11.5L117.59 11.85L118.12 12.13L118.68 12.32L119.25 12.44L119.86 12.48L120.46 12.44L121.03 12.32L121.58 12.13L122.11 11.85L122.61 11.5L123.09 11.07L123.52 10.58L123.86 10.03L124.14 9.42L124.33 8.76L124.45 8.04L124.48 7.26L124.45 6.57L124.35 5.91L124.17 5.29L123.93 4.7L123.61 4.15L123.23 3.63L122.9 3.32L122.48 3.03L121.97 2.77L121.37 2.53L120.68 2.33L119.89 2.15L119.89 2.15L119.21 2.19Z" id="f1EdNywfRe"></path><path d="M31.58 12.84C31.58 13.87 30.73 14.71 29.68 14.71C28.62 14.71 27.77 13.87 27.77 12.84C27.77 11.8 28.62 10.96 29.68 10.96C30.73 10.96 31.58 11.8 31.58 12.84Z" id="b2EMxdp0Uh"></path><path d="M119.03 9.58C119.03 10.16 118.55 10.63 117.96 10.63C117.36 10.63 116.88 10.16 116.88 9.58C116.88 8.99 117.36 8.52 117.96 8.52C118.55 8.52 119.03 8.99 119.03 9.58Z" id="b9m7tJv3O"></path><path d="M100.49 9.58C100.49 10.16 100.01 10.63 99.41 10.63C98.82 10.63 98.34 10.16 98.34 9.58C98.34 8.99 98.82 8.52 99.41 8.52C100.01 8.52 100.49 8.99 100.49 9.58Z" id="d2CLwwC64Y"></path></defs><g><g><g><use xlink:href="#bpPtjyyly" opacity="1" fill="#20232c" fill-opacity="1"></use><g><use xlink:href="#bpPtjyyly" opacity="1" fill-opacity="0" stroke="#000000" stroke-width="1" stroke-opacity="0"></use></g></g><g><use xlink:href="#k4j61YZ49e" opacity="1" fill="#ffce00" fill-opacity="1"></use><g><use xlink:href="#k4j61YZ49e" opacity="1" fill-opacity="0" stroke="#000000" stroke-width="1" stroke-opacity="0"></use></g></g><g><use xlink:href="#a18TwFF2mr" opacity="1" fill="#ffce00" fill-opacity="1"></use><g><use xlink:href="#a18TwFF2mr" opacity="1" fill-opacity="0" stroke="#000000" stroke-width="1" stroke-opacity="0"></use></g></g><g><use xlink:href="#f1EdNywfRe" opacity="1" fill="#ffce00" fill-opacity="1"></use><g><use xlink:href="#f1EdNywfRe" opacity="1" fill-opacity="0" stroke="#000000" stroke-width="1" stroke-opacity="0"></use></g></g><g><use xlink:href="#b2EMxdp0Uh" opacity="1" fill="#ffce00" fill-opacity="1"></use><g><use xlink:href="#b2EMxdp0Uh" opacity="1" fill-opacity="0" stroke="#000000" stroke-width="1" stroke-opacity="0"></use></g></g><g><use xlink:href="#b9m7tJv3O" opacity="1" fill="#ffce00" fill-opacity="1"></use><g><use xlink:href="#b9m7tJv3O" opacity="1" fill-opacity="0" stroke="#000000" stroke-width="1" stroke-opacity="0"></use></g></g><g><use xlink:href="#d2CLwwC64Y" opacity="1" fill="#ffce00" fill-opacity="1"></use><g><use xlink:href="#d2CLwwC64Y" opacity="1" fill-opacity="0" stroke="#000000" stroke-width="1" stroke-opacity="0"></use></g></g></g></g></svg>