<?xml version="1.0" encoding="UTF-8" standalone="no"?>
<!DOCTYPE svg PUBLIC "-//W3C//DTD SVG 1.1//EN" "http://www.w3.org/Graphics/SVG/1.1/DTD/svg11.dtd">
<svg version="1.1" xmlns="http://www.w3.org/2000/svg" xmlns:xlink="http://www.w3.org/1999/xlink" preserveAspectRatio="xMidYMid meet" width="127" height="25"><defs><path d="M87.76 24.42L43.96 24.42L43.96 18.5L49.8 18.5L49.8 16.22L35.81 16.22L35.81 18.5L41.64 18.5L41.64 24.42L30.84 24.42L30.84 16.22L28.52 16.22L28.52 24.42L10.64 24.42L10.64 18.5L20.95 18.5L20.95 20.44L23.27 20.44L23.27 16.22L8.33 16.22L8.33 24.42L0 24.42L0 0.03L8.33 0.03L8.33 7.87L23.27 7.87L23.27 3.72L20.95 3.72L20.95 5.6L10.64 5.6L10.64 0.03L28.52 0.03L28.52 7.87L30.84 7.87L30.84 0.03L41.64 0.03L41.64 7.87L43.96 7.87L43.96 0.03L87.76 0.03L87.76 24.42Z" id="c16r0M403m"></path><path d="M90.31 0L90.31 24.37L87.86 24.37L87.86 0L90.31 0Z" id="d12v5wDVDZ"></path><path d="M102 10.25L102.5 10.34L102.98 10.47L103.45 10.64L103.88 10.85L104.3 11.1L104.7 11.38L105.07 11.71L105.43 12.07L105.76 12.47L105.76 10.5L108.21 10.5L108.21 24.37L105.76 24.37L105.76 22.44L105.42 22.84L105.05 23.21L104.67 23.54L104.27 23.83L103.85 24.08L103.41 24.29L102.95 24.47L102.48 24.6L101.98 24.7L101.46 24.76L100.93 24.78L100.42 24.76L99.92 24.71L99.43 24.63L98.96 24.52L98.5 24.38L98.06 24.2L97.63 23.99L97.22 23.75L96.82 23.48L96.43 23.17L96.06 22.84L95.71 22.47L95.4 22.08L95.12 21.67L94.87 21.23L94.65 20.76L94.47 20.27L94.32 19.75L94.2 19.2L94.12 18.64L94.07 18.04L94.05 17.42L94.07 16.81L94.12 16.23L94.2 15.67L94.32 15.14L94.46 14.63L94.65 14.15L94.86 13.69L95.11 13.25L95.39 12.84L95.7 12.45L96.04 12.09L96.41 11.76L96.8 11.46L97.2 11.19L97.61 10.95L98.04 10.75L98.48 10.57L98.94 10.43L99.42 10.32L99.91 10.24L100.41 10.19L100.93 10.17L101.47 10.19L102 10.25ZM100.59 12.33L100.29 12.38L99.99 12.45L99.7 12.54L99.41 12.64L99.13 12.77L98.87 12.91L98.61 13.07L98.37 13.25L98.13 13.45L97.92 13.66L97.5 14.14L97.17 14.68L96.91 15.28L96.72 15.93L96.61 16.65L96.57 17.42L96.61 18.17L96.71 18.86L96.88 19.51L97.12 20.12L97.43 20.67L97.81 21.18L98.25 21.63L98.74 21.99L99.28 22.27L99.87 22.48L100.51 22.6L101.2 22.64L101.89 22.59L102.53 22.47L103.13 22.26L103.67 21.97L104.17 21.59L104.62 21.13L105.01 20.61L105.33 20.05L105.58 19.46L105.76 18.83L105.86 18.16L105.9 17.45L105.86 16.66L105.74 15.93L105.54 15.26L105.26 14.66L104.9 14.12L104.47 13.64L103.98 13.23L103.47 12.9L102.94 12.64L102.38 12.45L101.8 12.34L101.2 12.3L100.89 12.31L100.59 12.33Z" id="b1prIAdRDb"></path><path d="M115.55 12.15L115.81 11.88L116.09 11.62L116.37 11.39L116.66 11.18L116.97 10.99L117.28 10.82L117.6 10.66L117.93 10.53L118.28 10.42L118.63 10.33L118.99 10.26L119.36 10.21L119.74 10.18L120.13 10.17L120.54 10.18L120.95 10.21L121.34 10.26L121.72 10.32L122.09 10.41L122.45 10.52L122.8 10.65L123.13 10.79L123.45 10.96L123.77 11.14L124.07 11.35L124.35 11.57L124.63 11.81L124.89 12.08L125.15 12.36L125.39 12.65L125.61 12.96L125.82 13.27L126 13.58L126.18 13.91L126.33 14.24L126.47 14.57L126.6 14.92L126.71 15.27L126.8 15.63L126.87 15.99L126.93 16.37L126.97 16.74L126.99 17.13L127 17.52L126.99 17.92L126.97 18.31L126.93 18.69L126.87 19.07L126.8 19.43L126.71 19.79L126.6 20.14L126.48 20.48L126.34 20.82L126.19 21.14L126.01 21.46L125.83 21.77L125.62 22.08L125.4 22.37L125.17 22.66L124.92 22.93L124.65 23.19L124.38 23.42L124.1 23.64L123.8 23.84L123.49 24.02L123.18 24.18L122.85 24.32L122.51 24.44L122.16 24.55L121.8 24.63L121.42 24.7L121.04 24.74L120.64 24.77L120.23 24.78L119.83 24.77L119.43 24.74L119.04 24.68L118.67 24.61L118.31 24.52L117.95 24.4L117.61 24.27L117.28 24.11L116.97 23.93L116.66 23.73L116.36 23.52L116.08 23.28L115.81 23.02L115.55 22.74L115.3 22.43L115.3 24.37L112.84 24.37L112.84 0L115.3 0L115.3 12.44L115.55 12.15ZM118.68 12.46L118.12 12.65L117.59 12.93L117.08 13.28L116.59 13.71L116.15 14.2L115.79 14.75L115.52 15.35L115.32 16.01L115.2 16.72L115.16 17.49L115.2 18.19L115.3 18.86L115.49 19.49L115.74 20.08L116.07 20.63L116.47 21.15L116.93 21.6L117.43 21.97L117.98 22.26L118.57 22.47L119.21 22.59L119.89 22.63L119.89 22.63L120.68 22.46L121.37 22.25L121.97 22.01L122.48 21.75L122.9 21.46L123.23 21.15L123.61 20.63L123.93 20.08L124.17 19.5L124.35 18.87L124.45 18.21L124.48 17.52L124.45 16.74L124.33 16.03L124.14 15.36L123.86 14.76L123.52 14.2L123.09 13.71L122.61 13.28L122.11 12.93L121.58 12.65L121.03 12.46L120.46 12.34L119.86 12.3L119.25 12.34L118.68 12.46Z" id="b2DLC96kjs"></path><path d="M31.58 11.94C31.58 10.91 30.73 10.07 29.68 10.07C28.62 10.07 27.77 10.91 27.77 11.94C27.77 12.98 28.62 13.82 29.68 13.82C30.73 13.82 31.58 12.98 31.58 11.94Z" id="anvjPrX2C"></path><path d="M119.03 15.2C119.03 14.62 118.55 14.15 117.96 14.15C117.36 14.15 116.88 14.62 116.88 15.2C116.88 15.79 117.36 16.26 117.96 16.26C118.55 16.26 119.03 15.79 119.03 15.2Z" id="b6bpoD1Me"></path><path d="M100.49 15.2C100.49 14.62 100.01 14.15 99.41 14.15C98.82 14.15 98.34 14.62 98.34 15.2C98.34 15.79 98.82 16.26 99.41 16.26C100.01 16.26 100.49 15.79 100.49 15.2Z" id="c1TDm7yFf"></path></defs><g><g><g><use xlink:href="#c16r0M403m" opacity="1" fill="#20232c" fill-opacity="1"></use><g><use xlink:href="#c16r0M403m" opacity="1" fill-opacity="0" stroke="#000000" stroke-width="1" stroke-opacity="0"></use></g></g><g><use xlink:href="#d12v5wDVDZ" opacity="1" fill="#ffce00" fill-opacity="1"></use><g><use xlink:href="#d12v5wDVDZ" opacity="1" fill-opacity="0" stroke="#000000" stroke-width="1" stroke-opacity="0"></use></g></g><g><use xlink:href="#b1prIAdRDb" opacity="1" fill="#ffce00" fill-opacity="1"></use><g><use xlink:href="#b1prIAdRDb" opacity="1" fill-opacity="0" stroke="#000000" stroke-width="1" stroke-opacity="0"></use></g></g><g><use xlink:href="#b2DLC96kjs" opacity="1" fill="#ffce00" fill-opacity="1"></use><g><use xlink:href="#b2DLC96kjs" opacity="1" fill-opacity="0" stroke="#000000" stroke-width="1" stroke-opacity="0"></use></g></g><g><use xlink:href="#anvjPrX2C" opacity="1" fill="#ffce00" fill-opacity="1"></use><g><use xlink:href="#anvjPrX2C" opacity="1" fill-opacity="0" stroke="#000000" stroke-width="1" stroke-opacity="0"></use></g></g><g><use xlink:href="#b6bpoD1Me" opacity="1" fill="#ffce00" fill-opacity="1"></use><g><use xlink:href="#b6bpoD1Me" opacity="1" fill-opacity="0" stroke="#000000" stroke-width="1" stroke-opacity="0"></use></g></g><g><use xlink:href="#c1TDm7yFf" opacity="1" fill="#ffce00" fill-opacity="1"></use><g><use xlink:href="#c1TDm7yFf" opacity="1" fill-opacity="0" stroke="#000000" stroke-width="1" stroke-opacity="0"></use></g></g></g></g></svg>