<svg width="361" height="273" viewBox="0 0 361 273" fill="none" xmlns="http://www.w3.org/2000/svg">
<path d="M277.854 146.329C279.232 133.383 264.339 119.39 240.313 109.139C248.741 84.4142 248.338 63.9871 237.802 56.3396C235.376 54.5506 232.427 53.5117 229.124 53.1602L228.178 62.0431C230.009 62.238 231.444 62.7532 232.605 63.5617C237.688 67.2447 238.777 79.3253 235.327 94.347C234.49 98.0448 233.354 101.912 232.051 105.842C224.453 103.1 216.093 100.72 207.24 98.8108C202.651 90.8697 197.791 83.5847 192.802 77.1319C207.062 66.4429 219.944 61.1266 228.222 62.0075L229.168 53.1246C218.223 51.9598 203.064 58.2425 187.135 70.2443C174.081 55.2387 160.575 45.9862 149.63 44.8214L148.685 53.7044C156.924 54.5811 168.443 62.454 180.142 75.8248C173.946 81.0874 167.667 87.1468 161.589 93.9527C152.492 93.9515 143.818 94.519 135.81 95.6407C135.318 91.5599 135.053 87.624 134.969 83.8686C134.718 68.453 138.286 56.8679 143.993 54.2928C145.264 53.7029 146.85 53.5494 148.681 53.7442L149.626 44.8613C146.283 44.5055 143.182 44.9006 140.394 46.1348C128.523 51.3977 123.875 71.247 126.959 97.1159C101.389 102.13 83.9685 112.643 82.5951 125.549C81.2174 138.495 96.1104 152.488 120.136 162.739C111.709 187.464 112.111 207.891 122.648 215.538C125.074 217.327 128.022 218.366 131.366 218.722C142.311 219.887 157.469 213.604 173.398 201.602C186.452 216.608 199.958 225.86 210.903 227.025C214.246 227.381 217.347 226.986 220.135 225.752C232.006 220.489 236.654 200.639 233.571 174.771C259.056 169.788 276.481 159.235 277.854 146.329ZM228.862 114.245C226.843 119.227 224.448 124.33 221.815 129.407C220.522 126.047 219.15 122.678 217.618 119.292C216.127 115.911 214.507 112.596 212.879 109.361C218.442 110.799 223.784 112.415 228.862 114.245ZM206.119 154.728C202.442 159.775 198.716 164.535 194.908 168.924C188.923 168.811 182.883 168.45 176.833 167.806C170.824 167.167 164.844 166.248 159.004 165.143C156.205 160.052 153.52 154.65 150.983 148.981C148.514 143.441 146.331 137.851 144.392 132.247C147.428 127.171 150.782 122.13 154.322 117.23C157.999 112.182 161.725 107.422 165.533 103.034C171.518 103.147 177.558 103.508 183.608 104.151C189.617 104.791 195.597 105.709 201.437 106.814C204.236 111.906 206.921 117.308 209.458 122.976C211.927 128.516 214.11 134.106 216.049 139.711C212.974 144.782 209.659 149.827 206.119 154.728ZM219.526 150.918C221.107 156.484 222.37 162.017 223.331 167.356C217.981 168.076 212.375 168.567 206.594 168.798C208.871 165.938 211.156 162.999 213.33 159.967C215.5 156.975 217.555 153.931 219.526 150.918ZM174.645 189.126C171.351 184.908 168.103 180.252 164.937 175.201C168.502 175.742 172.151 176.251 175.853 176.645C179.594 177.043 183.304 177.357 186.947 177.544C182.869 181.823 178.714 185.691 174.645 189.126ZM147.531 162.512C141.968 161.074 136.626 159.459 131.548 157.629C133.567 152.647 135.962 147.544 138.595 142.466C139.888 145.827 141.26 149.196 142.791 152.581C144.323 155.967 145.903 159.277 147.531 162.512ZM185.764 82.748C189.059 86.9659 192.307 91.622 195.472 96.6723C191.907 96.1318 188.258 95.6226 184.557 95.2287C180.816 94.8306 177.106 94.5163 173.463 94.3301C177.541 90.0507 181.696 86.1824 185.764 82.748ZM153.816 103.076C151.539 105.936 149.254 108.875 147.08 111.907C144.91 114.899 142.859 117.903 140.888 120.916C139.307 115.35 138.044 109.817 137.083 104.478C142.428 103.798 148.035 103.307 153.816 103.076ZM112.489 149.115C99.0401 141.601 90.7652 132.744 91.4307 126.49C92.0962 120.236 102.054 113.279 116.779 108.803C120.359 107.693 124.24 106.777 128.232 105.953C129.67 114.002 131.79 122.446 134.605 131.165C130.062 139.061 126.256 146.833 123.201 154.364C119.392 152.71 115.795 150.957 112.489 149.115ZM127.844 208.316C122.762 204.633 121.673 192.553 125.123 177.531C125.959 173.833 127.095 169.966 128.399 166.036C135.996 168.778 144.357 171.158 153.21 173.067C157.799 181.008 162.659 188.293 167.647 194.746C153.388 205.435 140.505 210.751 132.227 209.87C130.44 209.64 128.966 209.121 127.844 208.316ZM225.48 188.009C225.731 203.425 222.164 215.01 216.456 217.585C215.186 218.175 213.6 218.329 211.769 218.134C203.53 217.257 192.011 209.384 180.312 196.013C186.507 190.751 192.787 184.691 198.865 177.885C207.961 177.887 216.635 177.319 224.644 176.197C225.131 180.318 225.436 184.258 225.48 188.009ZM243.631 163.071C240.051 164.18 236.17 165.097 232.178 165.921C230.74 157.872 228.62 149.428 225.804 140.709C230.348 132.813 234.153 125.04 237.209 117.51C241.018 119.164 244.615 120.916 247.96 122.763C261.409 130.277 269.684 139.134 269.019 145.388C268.313 151.638 258.356 158.595 243.631 163.071Z" fill="#61DAFB"/>
<path d="M178.248 154.139C188.293 155.208 197.304 147.924 198.374 137.87C199.444 127.816 192.168 118.8 182.122 117.731C172.077 116.662 163.066 123.945 161.996 133.999C160.926 144.053 168.202 153.07 178.248 154.139Z" fill="#61DAFB"/>
</svg>
