<?xml version="1.0" encoding="utf-8"?>
<!-- Generator: Adobe Illustrator 24.0.2, SVG Export Plug-In . SVG Version: 6.00 Build 0)  -->
<svg version="1.1" id="Слой_1" xmlns="http://www.w3.org/2000/svg" xmlns:xlink="http://www.w3.org/1999/xlink" x="0px" y="0px"
	 viewBox="0 0 426 103" style="enable-background:new 0 0 426 103;" xml:space="preserve">
<style type="text/css">
	.st0{fill:#FFCE00;}
	.st1{fill:#F2F2F2;}
</style>
<g>
	<path class="st0" d="M415,100.5c-1-1.1-1.7-2.5-1.8-4c-0.1-1.5,0.3-3,1.1-4.3c0.9-1.2,2.1-2.2,3.6-2.6c1.5-0.4,3-0.3,4.4,0.3
		c1.4,0.6,2.5,1.6,3.2,3c0.7,1.3,0.9,2.9,0.6,4.4c-0.3,1.5-1.1,2.8-2.3,3.8c-1.2,1-2.6,1.5-4.1,1.5c-0.9,0-1.8-0.2-2.6-0.5
		C416.4,101.6,415.6,101.1,415,100.5z"/>
	<path class="st1" d="M76.4,74.9v22.7c-7.6,3.9-16,5.9-24.6,5.8c-14.5,0-26.6-4.6-36.3-13.9C4.8,79.3-0.5,66.6-0.5,51.5
		c0-16.1,5.3-29.1,15.9-38.9C24.8,3.9,37-0.5,52-0.5c8.5-0.1,16.9,2.1,24.4,6.1v22.6C70,20.8,62,17.1,52.4,17.1
		c-9.7,0-17.7,3.4-23.8,10.2c-6.1,6.8-9.2,15-9.2,24.5c0,10.4,3.4,18.7,10.1,24.8c6.4,6,14.8,9.2,23.5,9.1
		C62.5,85.8,70.3,82.2,76.4,74.9z"/>
	<path class="st1" d="M97,1.8h19.4v99.4H97V1.8z"/>
	<path class="st1" d="M195.3,18.5H173v82.7h-19.4V18.5h-22.4V1.8h64.1V18.5z"/>
	<path class="st1" d="M242.8,2.4h9.8v98.8h-9.8V2.4z"/>
	<path class="st1" d="M314.1,52.9v-8h9.8v56.2h-9.8v-7.8c-4.9,6.3-11.3,9.5-19.2,9.5c-3.6,0.1-7.2-0.6-10.5-1.9
		c-3.3-1.4-6.4-3.4-8.9-5.9c-5.3-5.2-8-12.6-8-22c0-9.2,2.6-16.4,7.9-21.6c5.3-5.2,11.8-7.8,19.4-7.8
		C303,43.6,309.4,46.7,314.1,52.9z M295.9,52.3c-2.4,0-4.9,0.4-7.1,1.4c-2.3,0.9-4.3,2.3-6,4.1c-3.6,3.7-5.4,8.7-5.4,15.2
		c0,6.2,1.6,11.3,4.9,15.2c3.3,3.9,7.8,5.9,13.5,5.9c5.7,0,10.2-2,13.6-6.1c3.4-4.1,5.1-9,5.1-14.9c0-6.7-1.9-11.8-5.7-15.4
		C305.1,54.1,300.8,52.3,295.9,52.3L295.9,52.3z"/>
	<path class="st1" d="M352,93.3v7.9h-9.8V2.4h9.8v50.4c5-6.2,11.4-9.2,19.2-9.2c8.4,0,15.1,3,20,8.9c4.9,5.9,7.5,13.3,7.4,20.9
		c0,8.1-2.4,15.1-7.3,20.8s-11.4,8.6-19.6,8.6C363.4,102.8,356.9,99.6,352,93.3z M370.3,94.1c5.5,0,9.9-2,13.3-6c3.3-4,5-8.9,5-14.7
		c0-6.5-1.9-11.6-5.6-15.4c-3.7-3.8-8-5.7-12.9-5.7c-4.9,0-9.2,1.9-13,5.7c-3.8,3.8-5.7,8.9-5.7,15.3c0,5.9,1.7,10.8,5.2,14.8
		C360.2,92.1,364.7,94.1,370.3,94.1z"/>
</g>
</svg>
