<?xml version="1.0" encoding="utf-8"?>
<!-- Generator: Adobe Illustrator 24.0.2, SVG Export Plug-In . SVG Version: 6.00 Build 0)  -->
<svg version="1.1" id="Слой_1" xmlns="http://www.w3.org/2000/svg" xmlns:xlink="http://www.w3.org/1999/xlink" x="0px" y="0px"
	 viewBox="0 0 673 49" style="enable-background:new 0 0 673 49;" xml:space="preserve">
<style type="text/css">
	.st0{fill:#F2F2F2;}
</style>
<g>
	<path class="st0" d="M27.3,6.2v4.7c-1.3-1.3-2.8-2.4-4.4-3.1c-1.8-0.9-3.8-1.3-5.8-1.3c-1.8,0-3.6,0.3-5.3,1
		c-1.7,0.7-3.2,1.7-4.4,3.1c-1.3,1.3-2.3,2.9-2.9,4.6c-0.7,1.7-1,3.5-0.9,5.4c0,4.3,1.4,7.6,4.2,10.1c2.6,2.4,5.9,3.7,9.4,3.7
		c2.2,0,4.4-0.5,6.3-1.6c1.5-0.7,2.8-1.7,3.9-2.8v4.7c-3,2.2-6.5,3.3-10.2,3.3c-3.5,0-6.9-1.1-9.7-3c-2.9-1.9-5.1-4.7-6.5-7.8
		c-1.3-3.2-1.7-6.7-1-10.1c0.7-3.4,2.3-6.5,4.7-9c3.4-3.4,7.6-5,12.6-5C20.9,2.8,24.5,4,27.3,6.2z"/>
	<path class="st0" d="M51.2,34.6c-2.2,2-5,3.1-8,3.1s-5.8-1.1-8-3.1c-2-2.1-3.2-5-3.2-7.9c0-2.9,1.1-5.8,3.2-7.9c2.2-2,5-3.1,8-3.1
		s5.8,1.1,8,3.1c2,2.1,3.2,5,3.2,7.9C54.4,29.7,53.2,32.5,51.2,34.6z M48.4,21c-1.4-1.3-3.3-2.1-5.3-2.1s-3.8,0.7-5.3,2.1
		c-1.4,1.4-2.2,3.3-2.2,5.7c-0.1,1.1,0.1,2.1,0.5,3.1c0.4,1,1,1.9,1.7,2.6c1.4,1.3,3.3,2.1,5.2,2.1c1.9,0,3.8-0.7,5.2-2.1
		c1.5-1.4,2.2-3.3,2.2-5.7C50.6,24.3,49.9,22.3,48.4,21z"/>
	<path class="st0" d="M59.9,37.2v-21h3.7v2.2c0.6-0.9,1.3-1.6,2.3-2.1c0.9-0.5,1.9-0.7,3-0.7c1.2,0,2.4,0.3,3.4,0.9
		c1,0.6,1.9,1.5,2.4,2.5c0.7-1.1,1.6-2,2.7-2.6c1.1-0.6,2.4-0.9,3.6-0.8c4.6,0,6.9,2.7,6.9,8.2v13.3h-3.7V24.4c0-0.9,0-1.7-0.2-2.6
		c-0.2-0.8-0.5-1.5-1.1-2c-0.3-0.3-0.7-0.6-1.2-0.8c-0.4-0.2-0.9-0.2-1.4-0.2c-3.1,0-4.7,2.2-4.7,6.6v11.7h-3.7V24.7
		c0-3.9-1.3-5.8-3.9-5.8c-3.1,0-4.6,2.3-4.6,6.8v11.4L59.9,37.2z"/>
	<path class="st0" d="M110.5,30.1l3,1.7c-0.7,1.3-1.5,2.4-2.6,3.4c-1.9,1.7-4.4,2.6-7,2.6c-2.7,0.1-5.4-0.9-7.4-2.8
		c-2.1-1.8-3.1-4.6-3.1-8.2c-0.1-2.9,0.9-5.7,2.8-8c0.9-1,2.1-1.9,3.4-2.4c1.3-0.5,2.7-0.8,4.1-0.7c3.5,0,6.2,1.3,8,3.8
		c1.4,2,2.1,4.7,2,7.9H97.2c0,0.9,0.1,1.9,0.5,2.8c0.3,0.9,0.9,1.7,1.5,2.4c0.6,0.6,1.3,1.1,2.1,1.5c0.8,0.3,1.7,0.5,2.6,0.5
		c1.6,0,3.1-0.5,4.3-1.5C109.2,32.2,110,31.2,110.5,30.1z M97.5,24.4h12.4c-0.2-1.5-1-3-2.2-4c-1.1-1-2.6-1.5-4.1-1.5
		c-1.5,0-2.9,0.6-4,1.5C98.5,21.4,97.7,22.8,97.5,24.4L97.5,24.4z"/>
	<path class="st0" d="M119.2,37.2v-21h3.7v2.3c0.5-0.8,1.2-1.6,2-2c0.8-0.5,1.8-0.7,2.8-0.7c1.1,0,2.2,0.3,3.3,0.9l-1.7,3.3
		c-0.6-0.5-1.4-0.7-2.1-0.7c-0.6,0-1.1,0.1-1.6,0.3c-0.5,0.2-1,0.6-1.3,1c-0.8,1.1-1.2,3-1.2,5.7v11.1L119.2,37.2z"/>
	<path class="st0" d="M149.6,17.7V22c-0.8-1-1.8-1.8-2.9-2.4c-1.1-0.5-2.4-0.8-3.7-0.8c-1,0-1.9,0.2-2.9,0.5
		c-0.9,0.4-1.7,0.9-2.4,1.6c-0.7,0.8-1.3,1.7-1.7,2.6c-0.4,1-0.5,2-0.5,3.1c0,2.4,0.7,4.3,2.2,5.7c0.7,0.7,1.5,1.2,2.4,1.6
		c0.9,0.4,1.9,0.5,2.8,0.5c1.3,0,2.6-0.3,3.8-0.9c1.2-0.6,2.2-1.4,3-2.4v4.3c-2.2,1.6-4.9,2.3-7.6,2.2c-2.7-0.2-5.3-1.3-7.2-3.1
		c-1-1-1.9-2.3-2.4-3.6c-0.5-1.4-0.8-2.8-0.8-4.3c0-1.5,0.2-2.9,0.8-4.3c0.6-1.4,1.4-2.6,2.4-3.7c1.1-1,2.3-1.9,3.7-2.4
		c1.4-0.5,2.9-0.8,4.4-0.8C145.4,15.6,147.7,16.3,149.6,17.7z"/>
	<path class="st0" d="M155.3,10c-0.4-0.4-0.7-1-0.7-1.6c-0.1-0.6,0.1-1.2,0.4-1.7c0.3-0.5,0.8-0.9,1.4-1c0.6-0.2,1.2-0.1,1.7,0.1
		c0.5,0.2,1,0.6,1.3,1.2c0.3,0.5,0.4,1.1,0.3,1.7c-0.1,0.6-0.4,1.1-0.9,1.5c-0.5,0.4-1,0.6-1.6,0.6c-0.3,0-0.7-0.1-1-0.2
		C155.8,10.5,155.6,10.3,155.3,10z M155.3,16.2h3.7v21h-3.7V16.2z"/>
	<path class="st0" d="M182.1,19.1v-3h3.7v21h-3.7v-2.9c-0.8,1.1-1.9,2-3.2,2.7c-1.3,0.6-2.7,0.9-4.1,0.9c-1.3,0-2.7-0.2-3.9-0.7
		c-1.2-0.5-2.4-1.3-3.3-2.2c-2-2-3-4.7-3-8.2c0-3.5,1-6.2,3-8.1c1-1,2.1-1.7,3.3-2.2c1.3-0.5,2.6-0.7,3.9-0.7
		c1.4-0.1,2.8,0.2,4.1,0.8C180.1,17.1,181.2,18,182.1,19.1z M175.3,18.9c-0.9,0-1.8,0.2-2.7,0.5c-0.8,0.4-1.6,0.9-2.2,1.5
		c-1.3,1.4-2,3.3-2,5.7c-0.1,2.1,0.6,4.1,1.9,5.7c0.6,0.7,1.4,1.3,2.3,1.6c0.9,0.4,1.8,0.6,2.8,0.6c1,0,1.9-0.2,2.8-0.6
		c0.9-0.4,1.7-1,2.3-1.7c1.3-1.6,2-3.5,1.9-5.6c0-2.5-0.7-4.4-2.1-5.8c-0.6-0.6-1.4-1.2-2.2-1.5C177.1,19.1,176.2,18.9,175.3,18.9
		L175.3,18.9z"/>
	<path class="st0" d="M192.6,0.3h3.6v36.9h-3.7L192.6,0.3z"/>
	<path class="st0" d="M216,3.4h3.8v33.8H216V3.4z"/>
	<path class="st0" d="M227.6,37.2v-21h3.7v2.4c0.7-0.9,1.6-1.7,2.7-2.2c1.1-0.5,2.2-0.8,3.4-0.7c2.7,0,4.7,1,6,2.9
		c0.8,1.2,1.2,3.1,1.2,5.6v13h-3.7V24.3c0-1.7-0.3-3-1-3.8c-0.4-0.5-0.9-0.9-1.5-1.2c-0.6-0.3-1.2-0.4-1.9-0.4c-0.7,0-1.4,0.1-2,0.4
		c-0.6,0.3-1.2,0.7-1.7,1.2c-1,1.2-1.5,3.1-1.5,5.7v11L227.6,37.2z"/>
	<path class="st0" d="M260.4,19.5h-5.2v17.7h-3.7V19.5h-2v-3.3h2V7.1c0-2.8,0.7-4.8,2-5.9c1.2-0.9,2.7-1.4,4.2-1.3
		c0.9,0,1.8,0.2,2.6,0.5v3.5c-0.8-0.3-1.6-0.5-2.4-0.5c-0.5,0-0.9,0-1.3,0.2c-0.4,0.2-0.8,0.5-1,0.9c-0.3,0.5-0.5,1.5-0.5,3v8.7h5.2
		L260.4,19.5z"/>
	<path class="st0" d="M281.5,34.6c-2.2,2-5,3.1-8,3.1c-3,0-5.8-1.1-8-3.1c-2-2.1-3.2-5-3.2-7.9c0-2.9,1.1-5.8,3.2-7.9
		c2.2-2,5-3.1,8-3.1c3,0,5.8,1.1,8,3.1c2,2.1,3.2,5,3.2,7.9C284.7,29.7,283.6,32.5,281.5,34.6z M278.8,21c-1.4-1.3-3.3-2.1-5.3-2.1
		c-2,0-3.8,0.7-5.3,2.1c-1.4,1.4-2.2,3.3-2.2,5.7c0,2.4,0.7,4.3,2.2,5.7c1.4,1.3,3.3,2.1,5.2,2.1c1.9,0,3.8-0.7,5.2-2.1
		c1.5-1.4,2.2-3.3,2.2-5.7C280.9,24.3,280.2,22.3,278.8,21z"/>
	<path class="st0" d="M290.3,37.2v-21h3.7v2.3c0.5-0.8,1.2-1.6,2-2c0.8-0.5,1.8-0.7,2.8-0.7c1.1,0,2.2,0.3,3.3,0.9l-1.7,3.3
		c-0.6-0.5-1.4-0.7-2.1-0.7c-0.6,0-1.1,0.1-1.6,0.3c-0.5,0.2-1,0.6-1.3,1c-0.8,1.1-1.2,3-1.2,5.7v11.1L290.3,37.2z"/>
	<path class="st0" d="M305.3,37.2v-21h3.7v2.2c0.6-0.9,1.3-1.6,2.3-2.1c0.9-0.5,1.9-0.7,3-0.7c1.2,0,2.4,0.3,3.4,0.9
		c1,0.6,1.9,1.5,2.4,2.5c0.7-1.1,1.6-2,2.7-2.6c1.1-0.6,2.4-0.9,3.6-0.8c4.6,0,6.9,2.7,6.9,8.2v13.3h-3.7V24.4c0-0.9,0-1.7-0.2-2.6
		c-0.2-0.8-0.5-1.5-1.1-2c-0.3-0.3-0.7-0.6-1.2-0.8c-0.4-0.2-0.9-0.2-1.4-0.2c-3.1,0-4.7,2.2-4.7,6.6v11.7h-3.7V24.7
		c0-3.9-1.3-5.8-3.9-5.8c-3.1,0-4.6,2.3-4.6,6.8v11.4L305.3,37.2z"/>
	<path class="st0" d="M356.3,19.1v-3h3.7v21h-3.7v-2.9c-0.8,1.1-1.9,2-3.2,2.6c-1.3,0.6-2.6,0.9-4,0.9c-1.3,0-2.7-0.2-3.9-0.7
		c-1.2-0.5-2.4-1.3-3.3-2.2c-2-2-3-4.7-3-8.2c0-3.5,1-6.2,3-8.1c1-1,2.1-1.7,3.3-2.2c1.3-0.5,2.6-0.7,3.9-0.7c1.4,0,2.8,0.2,4,0.8
		C354.4,17.1,355.5,18,356.3,19.1z M349.5,18.9c-0.9,0-1.8,0.2-2.7,0.5c-0.8,0.4-1.6,0.9-2.2,1.5c-1.3,1.4-2,3.3-2,5.7
		c-0.1,2.1,0.6,4.1,1.9,5.7c0.6,0.7,1.4,1.3,2.3,1.6c0.9,0.4,1.8,0.6,2.8,0.6c1,0,1.9-0.2,2.8-0.6c0.9-0.4,1.7-1,2.3-1.7
		c1.3-1.6,2-3.5,1.9-5.6c0-2.5-0.7-4.4-2.1-5.8c-0.6-0.6-1.4-1.2-2.2-1.5C351.3,19.1,350.4,18.9,349.5,18.9L349.5,18.9z"/>
	<path class="st0" d="M374.3,19.5h-3.7v17.7H367V19.5h-2.2v-3.3h2.2V8.6h3.7v7.6h3.7V19.5z"/>
	<path class="st0" d="M377.8,10c-0.4-0.4-0.7-1-0.7-1.6s0.1-1.2,0.4-1.7c0.3-0.5,0.8-0.9,1.4-1c0.6-0.2,1.2-0.1,1.7,0.1
		c0.5,0.2,1,0.6,1.3,1.2c0.3,0.5,0.4,1.1,0.3,1.7c-0.1,0.6-0.4,1.1-0.9,1.5c-0.5,0.4-1,0.6-1.6,0.6c-0.3,0-0.7-0.1-1-0.2
		C378.3,10.5,378,10.3,377.8,10z M377.8,16.2h3.7v21h-3.7V16.2z"/>
	<path class="st0" d="M406.2,34.6c-2.2,2-5,3.1-8,3.1c-3,0-5.8-1.1-8-3.1c-2-2.1-3.2-5-3.2-7.9c0-2.9,1.1-5.8,3.2-7.9
		c2.2-2,5-3.1,8-3.1c3,0,5.8,1.1,8,3.1c2,2.1,3.2,5,3.2,7.9C409.4,29.7,408.3,32.5,406.2,34.6z M403.5,21c-1.4-1.3-3.3-2.1-5.3-2.1
		s-3.8,0.7-5.3,2.1c-1.4,1.4-2.2,3.3-2.2,5.7c-0.1,1.1,0.1,2.1,0.5,3.1c0.4,1,1,1.9,1.7,2.6c1.4,1.3,3.3,2.1,5.2,2.1
		c1.9,0,3.8-0.7,5.2-2.1c1.5-1.4,2.2-3.3,2.2-5.7C405.7,24.3,404.9,22.3,403.5,21z"/>
	<path class="st0" d="M415,37.2v-21h3.7v2.4c0.7-0.9,1.6-1.7,2.7-2.2c1.1-0.5,2.2-0.8,3.4-0.7c2.7,0,4.7,1,6,2.9
		c0.8,1.2,1.2,3.1,1.2,5.6v13h-3.7V24.3c0-1.7-0.3-3-1-3.8c-0.4-0.5-0.9-0.9-1.5-1.2c-0.6-0.3-1.3-0.4-1.9-0.3c-0.7,0-1.4,0.1-2,0.4
		c-0.6,0.3-1.2,0.7-1.7,1.2c-1,1.2-1.5,3.1-1.5,5.7v11H415z"/>
	<path class="st0" d="M468.2,6.9H460v30.2h-3.8V6.9H448V3.4h20.2V6.9z"/>
	<path class="st0" d="M483.8,30.1l3.1,1.7c-0.7,1.3-1.5,2.4-2.6,3.4c-1.9,1.7-4.4,2.6-7,2.6c-2.7,0.1-5.4-0.9-7.4-2.8
		c-2.1-1.8-3.1-4.6-3.1-8.2c-0.1-2.9,0.9-5.7,2.8-8c0.9-1,2.1-1.9,3.4-2.4c1.3-0.5,2.7-0.8,4.1-0.7c3.5,0,6.2,1.3,8,3.8
		c1.4,2,2.1,4.7,2,7.9h-16.4c0,1.9,0.7,3.8,2,5.2c0.6,0.6,1.3,1.2,2.2,1.5c0.8,0.3,1.7,0.5,2.6,0.5c1.6,0,3.1-0.5,4.3-1.5
		C482.6,32.2,483.3,31.2,483.8,30.1z M470.8,24.4h12.4c-0.2-1.5-1-3-2.2-4c-1.1-1-2.6-1.5-4.1-1.5c-1.5,0-2.9,0.6-4,1.5
		C471.8,21.4,471.1,22.8,470.8,24.4z"/>
	<path class="st0" d="M509.1,17.7V22c-0.8-1-1.8-1.8-2.9-2.4c-1.1-0.5-2.4-0.8-3.7-0.8c-1,0-1.9,0.2-2.9,0.5
		c-0.9,0.4-1.7,0.9-2.4,1.6c-1.5,1.4-2.2,3.3-2.2,5.7c0,2.4,0.7,4.3,2.2,5.7c0.7,0.7,1.5,1.2,2.4,1.6c0.9,0.4,1.9,0.5,2.8,0.5
		c1.3,0,2.6-0.3,3.8-0.9c1.2-0.6,2.2-1.4,3-2.4v4.3c-2.2,1.6-4.9,2.3-7.6,2.2c-2.7-0.2-5.3-1.3-7.2-3.1c-1-1-1.9-2.3-2.4-3.6
		c-0.5-1.4-0.8-2.8-0.8-4.3c0-1.5,0.2-2.9,0.8-4.3c0.6-1.4,1.4-2.6,2.4-3.7c1.1-1,2.3-1.9,3.7-2.4c1.4-0.5,2.9-0.8,4.4-0.8
		C504.9,15.6,507.2,16.3,509.1,17.7z"/>
	<path class="st0" d="M514.9,37.2V0.3h3.7v18.3c0.7-0.9,1.6-1.7,2.7-2.2c1.1-0.5,2.2-0.8,3.4-0.7c2.7,0,4.7,1,6,2.9
		c0.8,1.2,1.2,3.1,1.2,5.6v13h-3.7V24.3c0-1.7-0.3-3-1-3.8c-0.4-0.5-0.9-0.9-1.5-1.2c-0.6-0.3-1.3-0.4-1.9-0.3c-0.7,0-1.4,0.1-2,0.4
		c-0.6,0.3-1.2,0.7-1.7,1.2c-1,1.2-1.5,3.1-1.5,5.7v11H514.9z"/>
	<path class="st0" d="M538.7,37.2v-21h3.7v2.4c0.7-0.9,1.6-1.7,2.7-2.2c1.1-0.5,2.2-0.8,3.4-0.7c2.7,0,4.7,1,6,2.9
		c0.8,1.2,1.2,3.1,1.2,5.6v13H552V24.3c0-1.7-0.3-3-1-3.8c-0.4-0.5-0.9-0.9-1.5-1.2c-0.6-0.3-1.3-0.4-1.9-0.3c-0.7,0-1.4,0.1-2,0.4
		c-0.6,0.3-1.2,0.7-1.7,1.2c-1,1.2-1.5,3.1-1.5,5.7v11H538.7z"/>
	<path class="st0" d="M580.5,34.6c-2.2,2-5,3.1-8,3.1c-3,0-5.8-1.1-8-3.1c-2-2.1-3.2-5-3.2-7.9c0-2.9,1.1-5.8,3.2-7.9
		c2.2-2,5-3.1,8-3.1c3,0,5.8,1.1,8,3.1c2,2.1,3.2,5,3.2,7.9C583.7,29.7,582.6,32.5,580.5,34.6z M577.8,21c-1.4-1.3-3.3-2.1-5.3-2.1
		s-3.8,0.7-5.3,2.1c-1.4,1.4-2.2,3.3-2.2,5.7c0,2.4,0.7,4.3,2.2,5.7c1.4,1.3,3.3,2.1,5.2,2.1c1.9,0,3.8-0.7,5.2-2.1
		c1.5-1.4,2.2-3.3,2.2-5.7C579.9,24.3,579.2,22.3,577.8,21z"/>
	<path class="st0" d="M589.3,0.3h3.7v36.9h-3.7V0.3z"/>
	<path class="st0" d="M617.7,34.6c-2.2,2-5,3.1-8,3.1c-3,0-5.8-1.1-8-3.1c-2-2.1-3.2-5-3.2-7.9c0-2.9,1.1-5.8,3.2-7.9
		c2.2-2,5-3.1,8-3.1c3,0,5.8,1.1,8,3.1c2,2.1,3.2,5,3.2,7.9C620.9,29.7,619.8,32.5,617.7,34.6z M615,21c-1.4-1.3-3.3-2.1-5.3-2.1
		s-3.8,0.7-5.3,2.1c-1.4,1.4-2.2,3.3-2.2,5.7c-0.1,1.1,0.1,2.1,0.5,3.1c0.4,1,1,1.9,1.7,2.6c1.4,1.3,3.3,2.1,5.2,2.1
		c1.9,0,3.8-0.7,5.2-2.1c0.7-0.7,1.3-1.6,1.7-2.6c0.4-1,0.5-2,0.5-3.1C617.1,24.3,616.4,22.3,615,21z"/>
	<path class="st0" d="M642.7,19.1v-3h3.7v20.5c0,3.7-0.7,6.4-2,8.2c-1.9,2.6-4.7,3.9-8.4,3.9c-3.1,0-5.6-0.9-7.5-2.8
		c-0.9-0.9-1.6-1.9-2.1-3.1c-0.5-1.2-0.7-2.4-0.7-3.7h3.6c0,1.6,0.6,3.2,1.6,4.4c0.7,0.7,1.4,1.2,2.3,1.6c0.9,0.3,1.8,0.5,2.8,0.4
		c2.5,0,4.4-1,5.6-2.9c0.8-1.2,1.2-3,1.2-5.3v-3.1c-0.8,1.1-1.9,2-3.2,2.7s-2.6,0.9-4,0.9c-1.3,0-2.7-0.2-3.9-0.7
		c-1.2-0.5-2.4-1.3-3.3-2.2c-2-2-3-4.7-3-8.2c0-3.5,1-6.2,3-8.1c1-1,2.1-1.7,3.3-2.2c1.3-0.5,2.6-0.7,3.9-0.7c1.4,0,2.8,0.2,4,0.9
		C640.8,17.1,641.8,18,642.7,19.1z M635.9,18.9c-0.9,0-1.8,0.2-2.7,0.5c-0.8,0.4-1.6,0.9-2.2,1.5c-1.3,1.4-2,3.3-2,5.7
		c-0.1,2.1,0.6,4.1,1.9,5.7c0.6,0.7,1.4,1.3,2.3,1.7c0.9,0.4,1.8,0.6,2.8,0.5c1,0,1.9-0.1,2.8-0.5c0.9-0.4,1.7-1,2.3-1.7
		c1.3-1.6,2-3.5,1.9-5.6c0-2.5-0.7-4.4-2.1-5.8c-0.6-0.6-1.4-1.2-2.2-1.5C637.7,19.1,636.8,18.9,635.9,18.9L635.9,18.9z"/>
	<path class="st0" d="M653.1,49l6.8-13.8l-9.7-19h4.2l7.5,15l6.9-15h4.1L657.2,49H653.1z"/>
</g>
</svg>
