<?xml version="1.0" encoding="UTF-8" standalone="no"?>
<!-- Generator: Adobe Illustrator 24.0.2, SVG Export Plug-In . SVG Version: 6.00 Build 0)  -->

<svg
   xmlns:dc="http://purl.org/dc/elements/1.1/"
   xmlns:cc="http://creativecommons.org/ns#"
   xmlns:rdf="http://www.w3.org/1999/02/22-rdf-syntax-ns#"
   xmlns:svg="http://www.w3.org/2000/svg"
   xmlns="http://www.w3.org/2000/svg"
   xmlns:sodipodi="http://sodipodi.sourceforge.net/DTD/sodipodi-0.dtd"
   xmlns:inkscape="http://www.inkscape.org/namespaces/inkscape"
   version="1.1"
   id="Слой_1"
   x="0px"
   y="0px"
   viewBox="0 0 710 49"
   xml:space="preserve"
   sodipodi:docname="text_down_black.svg"
   width="710"
   height="49"
   inkscape:version="0.92.4 (5da689c313, 2019-01-14)"><metadata
   id="metadata150"><rdf:RDF><cc:Work
       rdf:about=""><dc:format>image/svg+xml</dc:format><dc:type
         rdf:resource="http://purl.org/dc/dcmitype/StillImage" /><dc:title></dc:title></cc:Work></rdf:RDF></metadata><defs
   id="defs148" /><sodipodi:namedview
   pagecolor="#ffffff"
   bordercolor="#666666"
   borderopacity="1"
   objecttolerance="10"
   gridtolerance="10"
   guidetolerance="10"
   inkscape:pageopacity="0"
   inkscape:pageshadow="2"
   inkscape:window-width="1920"
   inkscape:window-height="1017"
   id="namedview146"
   showgrid="false"
   inkscape:zoom="2.6225854"
   inkscape:cx="111.93416"
   inkscape:cy="73.125942"
   inkscape:window-x="-8"
   inkscape:window-y="-8"
   inkscape:window-maximized="1"
   inkscape:current-layer="g143" />
<style
   type="text/css"
   id="style81">
	.st0{fill:#F2F2F2;}
</style>
<g
   id="g143">
	<path
   class="st0"
   d="m 27.3,6.2 v 4.7 C 26,9.6 24.5,8.5 22.9,7.8 21.1,6.9 19.1,6.5 17.1,6.5 c -1.8,0 -3.6,0.3 -5.3,1 -1.7,0.7 -3.2,1.7 -4.4,3.1 -1.3,1.3 -2.3,2.9 -2.9,4.6 -0.7,1.7 -1,3.5 -0.9,5.4 0,4.3 1.4,7.6 4.2,10.1 2.6,2.4 5.9,3.7 9.4,3.7 2.2,0 4.4,-0.5 6.3,-1.6 1.5,-0.7 2.8,-1.7 3.9,-2.8 v 4.7 C 24.4,36.9 20.9,38 17.2,38 13.7,38 10.3,36.9 7.5,35 4.6,33.1 2.4,30.3 1,27.2 -0.3,24 -0.7,20.5 0,17.1 c 0.7,-3.4 2.3,-6.5 4.7,-9 3.4,-3.4 7.6,-5 12.6,-5 3.6,-0.3 7.2,0.9 10,3.1 z"
   id="path83"
   inkscape:connector-curvature="0"
   style="fill:#f2f2f2" />
	<path
   class="st0"
   d="m 51.2,34.6 c -2.2,2 -5,3.1 -8,3.1 -3,0 -5.8,-1.1 -8,-3.1 -2,-2.1 -3.2,-5 -3.2,-7.9 0,-2.9 1.1,-5.8 3.2,-7.9 2.2,-2 5,-3.1 8,-3.1 3,0 5.8,1.1 8,3.1 2,2.1 3.2,5 3.2,7.9 0,3 -1.2,5.8 -3.2,7.9 z M 48.4,21 c -1.4,-1.3 -3.3,-2.1 -5.3,-2.1 -2,0 -3.8,0.7 -5.3,2.1 -1.4,1.4 -2.2,3.3 -2.2,5.7 -0.1,1.1 0.1,2.1 0.5,3.1 0.4,1 1,1.9 1.7,2.6 1.4,1.3 3.3,2.1 5.2,2.1 1.9,0 3.8,-0.7 5.2,-2.1 1.5,-1.4 2.2,-3.3 2.2,-5.7 0.2,-2.4 -0.5,-4.4 -2,-5.7 z"
   id="path85"
   inkscape:connector-curvature="0"
   style="fill:#f2f2f2" />
	<path
   class="st0"
   d="m 59.9,37.2 v -21 h 3.7 v 2.2 c 0.6,-0.9 1.3,-1.6 2.3,-2.1 0.9,-0.5 1.9,-0.7 3,-0.7 1.2,0 2.4,0.3 3.4,0.9 1,0.6 1.9,1.5 2.4,2.5 0.7,-1.1 1.6,-2 2.7,-2.6 1.1,-0.6 2.4,-0.9 3.6,-0.8 4.6,0 6.9,2.7 6.9,8.2 V 37.1 H 84.2 V 24.4 c 0,-0.9 0,-1.7 -0.2,-2.6 -0.2,-0.8 -0.5,-1.5 -1.1,-2 -0.3,-0.3 -0.7,-0.6 -1.2,-0.8 -0.4,-0.2 -0.9,-0.2 -1.4,-0.2 -3.1,0 -4.7,2.2 -4.7,6.6 V 37.1 H 71.9 V 24.7 c 0,-3.9 -1.3,-5.8 -3.9,-5.8 -3.1,0 -4.6,2.3 -4.6,6.8 v 11.4 z"
   id="path87"
   inkscape:connector-curvature="0"
   style="fill:#f2f2f2" />
	<path
   class="st0"
   d="m 146.5,30.1 3,1.7 c -0.7,1.3 -1.5,2.4 -2.6,3.4 -1.9,1.7 -4.4,2.6 -7,2.6 -2.7,0.1 -5.4,-0.9 -7.4,-2.8 -2.1,-1.8 -3.1,-4.6 -3.1,-8.2 -0.1,-2.9 0.9,-5.7 2.8,-8 0.9,-1 2.1,-1.9 3.4,-2.4 1.3,-0.5 2.7,-0.8 4.1,-0.7 3.5,0 6.2,1.3 8,3.8 1.4,2 2.1,4.7 2,7.9 h -16.5 c 0,0.9 0.1,1.9 0.5,2.8 0.3,0.9 0.9,1.7 1.5,2.4 0.6,0.6 1.3,1.1 2.1,1.5 0.8,0.3 1.7,0.5 2.6,0.5 1.6,0 3.1,-0.5 4.3,-1.5 1,-0.9 1.8,-1.9 2.3,-3 z m -13,-5.7 h 12.4 c -0.2,-1.5 -1,-3 -2.2,-4 -1.1,-1 -2.6,-1.5 -4.1,-1.5 -1.5,0 -2.9,0.6 -4,1.5 -1.1,1 -1.9,2.4 -2.1,4 z"
   id="path89"
   inkscape:connector-curvature="0"
   style="fill:#f2f2f2" />
	<path
   class="st0"
   d="m 155.2,37.2 v -21 h 3.7 v 2.3 c 0.5,-0.8 1.2,-1.6 2,-2 0.8,-0.5 1.8,-0.7 2.8,-0.7 1.1,0 2.2,0.3 3.3,0.9 l -1.7,3.3 c -0.6,-0.5 -1.4,-0.7 -2.1,-0.7 -0.6,0 -1.1,0.1 -1.6,0.3 -0.5,0.2 -1,0.6 -1.3,1 -0.8,1.1 -1.2,3 -1.2,5.7 v 11.1 z"
   id="path91"
   inkscape:connector-curvature="0"
   style="fill:#f2f2f2" />
	<path
   class="st0"
   d="M 185.6,17.7 V 22 c -0.8,-1 -1.8,-1.8 -2.9,-2.4 -1.1,-0.5 -2.4,-0.8 -3.7,-0.8 -1,0 -1.9,0.2 -2.9,0.5 -0.9,0.4 -1.7,0.9 -2.4,1.6 -0.7,0.8 -1.3,1.7 -1.7,2.6 -0.4,1 -0.5,2 -0.5,3.1 0,2.4 0.7,4.3 2.2,5.7 0.7,0.7 1.5,1.2 2.4,1.6 0.9,0.4 1.9,0.5 2.8,0.5 1.3,0 2.6,-0.3 3.8,-0.9 1.2,-0.6 2.2,-1.4 3,-2.4 v 4.3 c -2.2,1.6 -4.9,2.3 -7.6,2.2 -2.7,-0.2 -5.3,-1.3 -7.2,-3.1 -1,-1 -1.9,-2.3 -2.4,-3.6 -0.5,-1.4 -0.8,-2.8 -0.8,-4.3 0,-1.5 0.2,-2.9 0.8,-4.3 0.6,-1.4 1.4,-2.6 2.4,-3.7 1.1,-1 2.3,-1.9 3.7,-2.4 1.4,-0.5 2.9,-0.8 4.4,-0.8 2.4,0.2 4.7,0.9 6.6,2.3 z"
   id="path93"
   inkscape:connector-curvature="0"
   style="fill:#f2f2f2" />
	<path
   class="st0"
   d="m 191.3,10 c -0.4,-0.4 -0.7,-1 -0.7,-1.6 -0.1,-0.6 0.1,-1.2 0.4,-1.7 0.3,-0.5 0.8,-0.9 1.4,-1 0.6,-0.2 1.2,-0.1 1.7,0.1 0.5,0.2 1,0.6 1.3,1.2 0.3,0.5 0.4,1.1 0.3,1.7 -0.1,0.6 -0.4,1.1 -0.9,1.5 -0.5,0.4 -1,0.6 -1.6,0.6 -0.3,0 -0.7,-0.1 -1,-0.2 -0.4,-0.1 -0.6,-0.3 -0.9,-0.6 z m 0,6.2 h 3.7 v 21 h -3.7 z"
   id="path95"
   inkscape:connector-curvature="0"
   style="fill:#f2f2f2" />
	<path
   class="st0"
   d="m 218.1,19.1 v -3 h 3.7 v 21 h -3.7 v -2.9 c -0.8,1.1 -1.9,2 -3.2,2.7 -1.3,0.6 -2.7,0.9 -4.1,0.9 -1.3,0 -2.7,-0.2 -3.9,-0.7 -1.2,-0.5 -2.4,-1.3 -3.3,-2.2 -2,-2 -3,-4.7 -3,-8.2 0,-3.5 1,-6.2 3,-8.1 1,-1 2.1,-1.7 3.3,-2.2 1.3,-0.5 2.6,-0.7 3.9,-0.7 1.4,-0.1 2.8,0.2 4.1,0.8 1.2,0.6 2.3,1.5 3.2,2.6 z m -6.8,-0.2 c -0.9,0 -1.8,0.2 -2.7,0.5 -0.8,0.4 -1.6,0.9 -2.2,1.5 -1.3,1.4 -2,3.3 -2,5.7 -0.1,2.1 0.6,4.1 1.9,5.7 0.6,0.7 1.4,1.3 2.3,1.6 0.9,0.4 1.8,0.6 2.8,0.6 1,0 1.9,-0.2 2.8,-0.6 0.9,-0.4 1.7,-1 2.3,-1.7 1.3,-1.6 2,-3.5 1.9,-5.6 0,-2.5 -0.7,-4.4 -2.1,-5.8 -0.6,-0.6 -1.4,-1.2 -2.2,-1.5 -1,-0.2 -1.9,-0.4 -2.8,-0.4 z"
   id="path97"
   inkscape:connector-curvature="0"
   style="fill:#f2f2f2" />
	<path
   class="st0"
   d="m 228.6,0.3 h 3.6 v 36.9 h -3.7 z"
   id="path99"
   inkscape:connector-curvature="0"
   style="fill:#f2f2f2" />
	<path
   class="st0"
   d="m 252,3.4 h 3.8 V 37.2 H 252 Z"
   id="path101"
   inkscape:connector-curvature="0"
   style="fill:#f2f2f2" />
	<path
   class="st0"
   d="m 263.6,37.2 v -21 h 3.7 v 2.4 c 0.7,-0.9 1.6,-1.7 2.7,-2.2 1.1,-0.5 2.2,-0.8 3.4,-0.7 2.7,0 4.7,1 6,2.9 0.8,1.2 1.2,3.1 1.2,5.6 v 13 h -3.7 V 24.3 c 0,-1.7 -0.3,-3 -1,-3.8 -0.4,-0.5 -0.9,-0.9 -1.5,-1.2 -0.6,-0.3 -1.2,-0.4 -1.9,-0.4 -0.7,0 -1.4,0.1 -2,0.4 -0.6,0.3 -1.2,0.7 -1.7,1.2 -1,1.2 -1.5,3.1 -1.5,5.7 v 11 z"
   id="path103"
   inkscape:connector-curvature="0"
   style="fill:#f2f2f2" />
	<path
   class="st0"
   d="m 296.4,19.5 h -5.2 v 17.7 h -3.7 V 19.5 h -2 v -3.3 h 2 V 7.1 c 0,-2.8 0.7,-4.8 2,-5.9 1.2,-0.9 2.7,-1.4 4.2,-1.3 0.9,0 1.8,0.2 2.6,0.5 v 3.5 c -0.8,-0.3 -1.6,-0.5 -2.4,-0.5 -0.5,0 -0.9,0 -1.3,0.2 -0.4,0.2 -0.8,0.5 -1,0.9 -0.3,0.5 -0.5,1.5 -0.5,3 v 8.7 h 5.2 z"
   id="path105"
   inkscape:connector-curvature="0"
   style="fill:#f2f2f2" />
	<path
   class="st0"
   d="m 317.5,34.6 c -2.2,2 -5,3.1 -8,3.1 -3,0 -5.8,-1.1 -8,-3.1 -2,-2.1 -3.2,-5 -3.2,-7.9 0,-2.9 1.1,-5.8 3.2,-7.9 2.2,-2 5,-3.1 8,-3.1 3,0 5.8,1.1 8,3.1 2,2.1 3.2,5 3.2,7.9 0,3 -1.1,5.8 -3.2,7.9 z M 314.8,21 c -1.4,-1.3 -3.3,-2.1 -5.3,-2.1 -2,0 -3.8,0.7 -5.3,2.1 -1.4,1.4 -2.2,3.3 -2.2,5.7 0,2.4 0.7,4.3 2.2,5.7 1.4,1.3 3.3,2.1 5.2,2.1 1.9,0 3.8,-0.7 5.2,-2.1 1.5,-1.4 2.2,-3.3 2.2,-5.7 0.1,-2.4 -0.6,-4.4 -2,-5.7 z"
   id="path107"
   inkscape:connector-curvature="0"
   style="fill:#f2f2f2" />
	<path
   class="st0"
   d="m 326.3,37.2 v -21 h 3.7 v 2.3 c 0.5,-0.8 1.2,-1.6 2,-2 0.8,-0.5 1.8,-0.7 2.8,-0.7 1.1,0 2.2,0.3 3.3,0.9 l -1.7,3.3 c -0.6,-0.5 -1.4,-0.7 -2.1,-0.7 -0.6,0 -1.1,0.1 -1.6,0.3 -0.5,0.2 -1,0.6 -1.3,1 -0.8,1.1 -1.2,3 -1.2,5.7 v 11.1 z"
   id="path109"
   inkscape:connector-curvature="0"
   style="fill:#f2f2f2" />
	<path
   class="st0"
   d="m 341.3,37.2 v -21 h 3.7 v 2.2 c 0.6,-0.9 1.3,-1.6 2.3,-2.1 0.9,-0.5 1.9,-0.7 3,-0.7 1.2,0 2.4,0.3 3.4,0.9 1,0.6 1.9,1.5 2.4,2.5 0.7,-1.1 1.6,-2 2.7,-2.6 1.1,-0.6 2.4,-0.9 3.6,-0.8 4.6,0 6.9,2.7 6.9,8.2 v 13.3 h -3.7 V 24.4 c 0,-0.9 0,-1.7 -0.2,-2.6 -0.2,-0.8 -0.5,-1.5 -1.1,-2 -0.3,-0.3 -0.7,-0.6 -1.2,-0.8 -0.4,-0.2 -0.9,-0.2 -1.4,-0.2 -3.1,0 -4.7,2.2 -4.7,6.6 v 11.7 h -3.7 V 24.7 c 0,-3.9 -1.3,-5.8 -3.9,-5.8 -3.1,0 -4.6,2.3 -4.6,6.8 v 11.4 z"
   id="path111"
   inkscape:connector-curvature="0"
   style="fill:#f2f2f2" />
	<path
   class="st0"
   d="m 392.3,19.1 v -3 h 3.7 v 21 h -3.7 v -2.9 c -0.8,1.1 -1.9,2 -3.2,2.6 -1.3,0.6 -2.6,0.9 -4,0.9 -1.3,0 -2.7,-0.2 -3.9,-0.7 -1.2,-0.5 -2.4,-1.3 -3.3,-2.2 -2,-2 -3,-4.7 -3,-8.2 0,-3.5 1,-6.2 3,-8.1 1,-1 2.1,-1.7 3.3,-2.2 1.3,-0.5 2.6,-0.7 3.9,-0.7 1.4,0 2.8,0.2 4,0.8 1.3,0.7 2.4,1.6 3.2,2.7 z m -6.8,-0.2 c -0.9,0 -1.8,0.2 -2.7,0.5 -0.8,0.4 -1.6,0.9 -2.2,1.5 -1.3,1.4 -2,3.3 -2,5.7 -0.1,2.1 0.6,4.1 1.9,5.7 0.6,0.7 1.4,1.3 2.3,1.6 0.9,0.4 1.8,0.6 2.8,0.6 1,0 1.9,-0.2 2.8,-0.6 0.9,-0.4 1.7,-1 2.3,-1.7 1.3,-1.6 2,-3.5 1.9,-5.6 0,-2.5 -0.7,-4.4 -2.1,-5.8 -0.6,-0.6 -1.4,-1.2 -2.2,-1.5 -1,-0.2 -1.9,-0.4 -2.8,-0.4 z"
   id="path113"
   inkscape:connector-curvature="0"
   style="fill:#f2f2f2" />
	<path
   class="st0"
   d="m 410.3,19.5 h -3.7 V 37.2 H 403 V 19.5 h -2.2 V 16.2 H 403 V 8.6 h 3.7 v 7.6 h 3.7 v 3.3 z"
   id="path115"
   inkscape:connector-curvature="0"
   style="fill:#f2f2f2" />
	<path
   class="st0"
   d="m 413.8,10 c -0.4,-0.4 -0.7,-1 -0.7,-1.6 0,-0.6 0.1,-1.2 0.4,-1.7 0.3,-0.5 0.8,-0.9 1.4,-1 0.6,-0.2 1.2,-0.1 1.7,0.1 0.5,0.2 1,0.6 1.3,1.2 0.3,0.5 0.4,1.1 0.3,1.7 -0.1,0.6 -0.4,1.1 -0.9,1.5 -0.5,0.4 -1,0.6 -1.6,0.6 -0.3,0 -0.7,-0.1 -1,-0.2 -0.4,-0.1 -0.7,-0.3 -0.9,-0.6 z m 0,6.2 h 3.7 v 21 h -3.7 z"
   id="path117"
   inkscape:connector-curvature="0"
   style="fill:#f2f2f2" />
	<path
   class="st0"
   d="m 442.2,34.6 c -2.2,2 -5,3.1 -8,3.1 -3,0 -5.8,-1.1 -8,-3.1 -2,-2.1 -3.2,-5 -3.2,-7.9 0,-2.9 1.1,-5.8 3.2,-7.9 2.2,-2 5,-3.1 8,-3.1 3,0 5.8,1.1 8,3.1 2,2.1 3.2,5 3.2,7.9 0,3 -1.1,5.8 -3.2,7.9 z M 439.5,21 c -1.4,-1.3 -3.3,-2.1 -5.3,-2.1 -2,0 -3.8,0.7 -5.3,2.1 -1.4,1.4 -2.2,3.3 -2.2,5.7 -0.1,1.1 0.1,2.1 0.5,3.1 0.4,1 1,1.9 1.7,2.6 1.4,1.3 3.3,2.1 5.2,2.1 1.9,0 3.8,-0.7 5.2,-2.1 1.5,-1.4 2.2,-3.3 2.2,-5.7 0.2,-2.4 -0.6,-4.4 -2,-5.7 z"
   id="path119"
   inkscape:connector-curvature="0"
   style="fill:#f2f2f2" />
	<path
   class="st0"
   d="m 451,37.2 v -21 h 3.7 v 2.4 c 0.7,-0.9 1.6,-1.7 2.7,-2.2 1.1,-0.5 2.2,-0.8 3.4,-0.7 2.7,0 4.7,1 6,2.9 0.8,1.2 1.2,3.1 1.2,5.6 v 13 h -3.7 V 24.3 c 0,-1.7 -0.3,-3 -1,-3.8 -0.4,-0.5 -0.9,-0.9 -1.5,-1.2 -0.6,-0.3 -1.3,-0.4 -1.9,-0.3 -0.7,0 -1.4,0.1 -2,0.4 -0.6,0.3 -1.2,0.7 -1.7,1.2 -1,1.2 -1.5,3.1 -1.5,5.7 v 11 H 451 Z"
   id="path121"
   inkscape:connector-curvature="0"
   style="fill:#f2f2f2" />
	<path
   class="st0"
   d="M 504.2,6.9 H 496 v 30.2 h -3.8 V 6.9 H 484 V 3.4 h 20.2 z"
   id="path123"
   inkscape:connector-curvature="0"
   style="fill:#f2f2f2" />
	<path
   class="st0"
   d="m 519.8,30.1 3.1,1.7 c -0.7,1.3 -1.5,2.4 -2.6,3.4 -1.9,1.7 -4.4,2.6 -7,2.6 -2.7,0.1 -5.4,-0.9 -7.4,-2.8 -2.1,-1.8 -3.1,-4.6 -3.1,-8.2 -0.1,-2.9 0.9,-5.7 2.8,-8 0.9,-1 2.1,-1.9 3.4,-2.4 1.3,-0.5 2.7,-0.8 4.1,-0.7 3.5,0 6.2,1.3 8,3.8 1.4,2 2.1,4.7 2,7.9 h -16.4 c 0,1.9 0.7,3.8 2,5.2 0.6,0.6 1.3,1.2 2.2,1.5 0.8,0.3 1.7,0.5 2.6,0.5 1.6,0 3.1,-0.5 4.3,-1.5 0.8,-0.9 1.5,-1.9 2,-3 z m -13,-5.7 h 12.4 c -0.2,-1.5 -1,-3 -2.2,-4 -1.1,-1 -2.6,-1.5 -4.1,-1.5 -1.5,0 -2.9,0.6 -4,1.5 -1.1,1 -1.8,2.4 -2.1,4 z"
   id="path125"
   inkscape:connector-curvature="0"
   style="fill:#f2f2f2" />
	<path
   class="st0"
   d="M 545.1,17.7 V 22 c -0.8,-1 -1.8,-1.8 -2.9,-2.4 -1.1,-0.5 -2.4,-0.8 -3.7,-0.8 -1,0 -1.9,0.2 -2.9,0.5 -0.9,0.4 -1.7,0.9 -2.4,1.6 -1.5,1.4 -2.2,3.3 -2.2,5.7 0,2.4 0.7,4.3 2.2,5.7 0.7,0.7 1.5,1.2 2.4,1.6 0.9,0.4 1.9,0.5 2.8,0.5 1.3,0 2.6,-0.3 3.8,-0.9 1.2,-0.6 2.2,-1.4 3,-2.4 v 4.3 c -2.2,1.6 -4.9,2.3 -7.6,2.2 -2.7,-0.2 -5.3,-1.3 -7.2,-3.1 -1,-1 -1.9,-2.3 -2.4,-3.6 -0.5,-1.4 -0.8,-2.8 -0.8,-4.3 0,-1.5 0.2,-2.9 0.8,-4.3 0.6,-1.4 1.4,-2.6 2.4,-3.7 1.1,-1 2.3,-1.9 3.7,-2.4 1.4,-0.5 2.9,-0.8 4.4,-0.8 2.4,0.2 4.7,0.9 6.6,2.3 z"
   id="path127"
   inkscape:connector-curvature="0"
   style="fill:#f2f2f2" />
	<path
   class="st0"
   d="M 550.9,37.2 V 0.3 h 3.7 v 18.3 c 0.7,-0.9 1.6,-1.7 2.7,-2.2 1.1,-0.5 2.2,-0.8 3.4,-0.7 2.7,0 4.7,1 6,2.9 0.8,1.2 1.2,3.1 1.2,5.6 v 13 h -3.7 V 24.3 c 0,-1.7 -0.3,-3 -1,-3.8 -0.4,-0.5 -0.9,-0.9 -1.5,-1.2 -0.6,-0.3 -1.3,-0.4 -1.9,-0.3 -0.7,0 -1.4,0.1 -2,0.4 -0.6,0.3 -1.2,0.7 -1.7,1.2 -1,1.2 -1.5,3.1 -1.5,5.7 v 11 h -3.7 z"
   id="path129"
   inkscape:connector-curvature="0"
   style="fill:#f2f2f2" />
	<path
   class="st0"
   d="m 574.7,37.2 v -21 h 3.7 v 2.4 c 0.7,-0.9 1.6,-1.7 2.7,-2.2 1.1,-0.5 2.2,-0.8 3.4,-0.7 2.7,0 4.7,1 6,2.9 0.8,1.2 1.2,3.1 1.2,5.6 v 13 H 588 V 24.3 c 0,-1.7 -0.3,-3 -1,-3.8 -0.4,-0.5 -0.9,-0.9 -1.5,-1.2 -0.6,-0.3 -1.3,-0.4 -1.9,-0.3 -0.7,0 -1.4,0.1 -2,0.4 -0.6,0.3 -1.2,0.7 -1.7,1.2 -1,1.2 -1.5,3.1 -1.5,5.7 v 11 h -3.7 z"
   id="path131"
   inkscape:connector-curvature="0"
   style="fill:#f2f2f2" />
	<path
   class="st0"
   d="m 616.5,34.6 c -2.2,2 -5,3.1 -8,3.1 -3,0 -5.8,-1.1 -8,-3.1 -2,-2.1 -3.2,-5 -3.2,-7.9 0,-2.9 1.1,-5.8 3.2,-7.9 2.2,-2 5,-3.1 8,-3.1 3,0 5.8,1.1 8,3.1 2,2.1 3.2,5 3.2,7.9 0,3 -1.1,5.8 -3.2,7.9 z M 613.8,21 c -1.4,-1.3 -3.3,-2.1 -5.3,-2.1 -2,0 -3.8,0.7 -5.3,2.1 -1.4,1.4 -2.2,3.3 -2.2,5.7 0,2.4 0.7,4.3 2.2,5.7 1.4,1.3 3.3,2.1 5.2,2.1 1.9,0 3.8,-0.7 5.2,-2.1 1.5,-1.4 2.2,-3.3 2.2,-5.7 0.1,-2.4 -0.6,-4.4 -2,-5.7 z"
   id="path133"
   inkscape:connector-curvature="0"
   style="fill:#f2f2f2" />
	<path
   class="st0"
   d="m 625.3,0.3 h 3.7 v 36.9 h -3.7 z"
   id="path135"
   inkscape:connector-curvature="0"
   style="fill:#f2f2f2" />
	<path
   class="st0"
   d="m 653.7,34.6 c -2.2,2 -5,3.1 -8,3.1 -3,0 -5.8,-1.1 -8,-3.1 -2,-2.1 -3.2,-5 -3.2,-7.9 0,-2.9 1.1,-5.8 3.2,-7.9 2.2,-2 5,-3.1 8,-3.1 3,0 5.8,1.1 8,3.1 2,2.1 3.2,5 3.2,7.9 0,3 -1.1,5.8 -3.2,7.9 z M 651,21 c -1.4,-1.3 -3.3,-2.1 -5.3,-2.1 -2,0 -3.8,0.7 -5.3,2.1 -1.4,1.4 -2.2,3.3 -2.2,5.7 -0.1,1.1 0.1,2.1 0.5,3.1 0.4,1 1,1.9 1.7,2.6 1.4,1.3 3.3,2.1 5.2,2.1 1.9,0 3.8,-0.7 5.2,-2.1 0.7,-0.7 1.3,-1.6 1.7,-2.6 0.4,-1 0.5,-2 0.5,-3.1 0.1,-2.4 -0.6,-4.4 -2,-5.7 z"
   id="path137"
   inkscape:connector-curvature="0"
   style="fill:#f2f2f2" />
	<path
   class="st0"
   d="m 678.7,19.1 v -3 h 3.7 v 20.5 c 0,3.7 -0.7,6.4 -2,8.2 -1.9,2.6 -4.7,3.9 -8.4,3.9 -3.1,0 -5.6,-0.9 -7.5,-2.8 -0.9,-0.9 -1.6,-1.9 -2.1,-3.1 -0.5,-1.2 -0.7,-2.4 -0.7,-3.7 h 3.6 c 0,1.6 0.6,3.2 1.6,4.4 0.7,0.7 1.4,1.2 2.3,1.6 0.9,0.3 1.8,0.5 2.8,0.4 2.5,0 4.4,-1 5.6,-2.9 0.8,-1.2 1.2,-3 1.2,-5.3 v -3.1 c -0.8,1.1 -1.9,2 -3.2,2.7 -1.3,0.7 -2.6,0.9 -4,0.9 -1.3,0 -2.7,-0.2 -3.9,-0.7 -1.2,-0.5 -2.4,-1.3 -3.3,-2.2 -2,-2 -3,-4.7 -3,-8.2 0,-3.5 1,-6.2 3,-8.1 1,-1 2.1,-1.7 3.3,-2.2 1.3,-0.5 2.6,-0.7 3.9,-0.7 1.4,0 2.8,0.2 4,0.9 1.2,0.5 2.2,1.4 3.1,2.5 z m -6.8,-0.2 c -0.9,0 -1.8,0.2 -2.7,0.5 -0.8,0.4 -1.6,0.9 -2.2,1.5 -1.3,1.4 -2,3.3 -2,5.7 -0.1,2.1 0.6,4.1 1.9,5.7 0.6,0.7 1.4,1.3 2.3,1.7 0.9,0.4 1.8,0.6 2.8,0.5 1,0 1.9,-0.1 2.8,-0.5 0.9,-0.4 1.7,-1 2.3,-1.7 1.3,-1.6 2,-3.5 1.9,-5.6 0,-2.5 -0.7,-4.4 -2.1,-5.8 -0.6,-0.6 -1.4,-1.2 -2.2,-1.5 -1,-0.3 -1.9,-0.5 -2.8,-0.5 z"
   id="path139"
   inkscape:connector-curvature="0"
   style="fill:#f2f2f2" />
	<path
   class="st0"
   d="m 689.1,49 6.8,-13.8 -9.7,-19 h 4.2 l 7.5,15 6.9,-15 h 4.1 L 693.2,49 Z"
   id="path141"
   inkscape:connector-curvature="0"
   style="fill:#f2f2f2" />
<path
   class="st0"
   d="m 96.189235,37.312591 v -21 h 3.7 v 2.2 c 0.599995,-0.9 1.299995,-1.6 2.299995,-2.1 0.90001,-0.5 1.90001,-0.7 3,-0.7 1.20001,0 2.40001,0.3 3.40001,0.9 1,0.6 1.9,1.5 2.4,2.5 0.7,-1.1 1.6,-2 2.7,-2.6 1.1,-0.6 2.4,-0.9 3.6,-0.8 4.6,0 6.9,2.7 6.9,8.2 v 13.3 h -3.7 v -12.7 c 0,-0.9 0,-1.7 -0.2,-2.6 -0.2,-0.8 -0.5,-1.5 -1.1,-2 -0.3,-0.3 -0.7,-0.6 -1.2,-0.8 -0.4,-0.2 -0.9,-0.2 -1.4,-0.2 -3.1,0 -4.7,2.2 -4.7,6.6 v 11.7 h -3.7 v -12.4 c 0,-3.9 -1.30001,-5.8 -3.90001,-5.8 -3.1,0 -4.599995,2.3 -4.599995,6.8 v 11.4 z"
   id="path87-0"
   inkscape:connector-curvature="0"
   style="fill:#f2f2f2" /></g>
</svg>