<svg width="127" height="38" viewBox="0 0 127 38" fill="none" xmlns="http://www.w3.org/2000/svg">
<g clip-path="url(#clip0)">
<path d="M87.7616 0.0288086V24.4182H43.9637V18.496H49.7966V16.2183H35.812V18.496H41.6449V24.4182H30.8352V16.2183H28.5165V24.4182H10.644V18.496H20.9536V20.4413H23.2724V16.2183H8.32523V24.4182H0V0.0288086H8.32523V7.87411H23.2724V3.72185H20.9536V5.59647H10.644V0.0288086H28.5165V7.87411H30.8352V0.0288086H41.6449V7.87411H43.9637V0.0288086H87.7616Z" fill="#F2F2F2"/>
<path d="M87.8584 0H90.3093V24.3729H87.8584V0Z" fill="#FFCE00"/>
<path d="M105.761 12.4704V10.4979H108.212V24.373H105.761V22.4354C104.536 23.9958 102.926 24.776 100.929 24.776C99.0218 24.776 97.3994 24.1301 96.0613 22.8384C94.7232 21.5467 94.0539 19.7412 94.0532 17.4219C94.0532 15.1478 94.7167 13.3717 96.0436 12.0935C97.3704 10.8153 98.9988 10.1746 100.929 10.1714C102.97 10.1662 104.581 10.9326 105.761 12.4704ZM101.201 12.3037C100.587 12.2932 99.9783 12.4083 99.4127 12.6419C98.847 12.8754 98.3371 13.2222 97.9155 13.66C97.0193 14.5643 96.5712 15.8182 96.5712 17.4219C96.5712 18.959 96.9854 20.2126 97.8139 21.1827C98.6424 22.1528 99.7714 22.6372 101.201 22.6359C102.63 22.6359 103.77 22.1344 104.621 21.1314C105.472 20.1284 105.898 18.9012 105.898 17.45C105.898 15.8011 105.421 14.5307 104.468 13.6387C103.516 12.7468 102.426 12.3018 101.201 12.3037Z" fill="#FFCE00"/>
<path d="M115.295 22.4334V24.371H112.844V0H115.295V12.4422C116.544 10.927 118.155 10.1691 120.127 10.1685C122.238 10.1685 123.912 10.8986 125.148 12.3589C126.384 13.8192 127.002 15.5408 127.003 17.5236C127.003 19.5296 126.39 21.2411 125.165 22.6582C123.94 24.0752 122.297 24.7827 120.234 24.7808C118.164 24.7763 116.518 23.9938 115.295 22.4334ZM119.89 22.6349C121.271 22.6349 122.382 22.1389 123.225 21.1468C124.068 20.1548 124.488 18.9454 124.484 17.5187C124.484 15.9144 124.019 14.644 123.089 13.7075C122.16 12.771 121.082 12.303 119.855 12.3037C118.63 12.3037 117.541 12.7716 116.588 13.7075C115.634 14.6433 115.158 15.9028 115.159 17.4858C115.159 18.9351 115.595 20.1554 116.468 21.1468C117.342 22.1382 118.481 22.6343 119.887 22.6349H119.89Z" fill="#FFCE00"/>
<path d="M29.6763 13.817C30.7303 13.817 31.5847 12.9777 31.5847 11.9424C31.5847 10.907 30.7303 10.0677 29.6763 10.0677C28.6223 10.0677 27.7678 10.907 27.7678 11.9424C27.7678 12.9777 28.6223 13.817 29.6763 13.817Z" fill="#FFCE00"/>
<path d="M117.957 16.2584C118.55 16.2584 119.03 15.7865 119.03 15.2043C119.03 14.6222 118.55 14.1503 117.957 14.1503C117.364 14.1503 116.884 14.6222 116.884 15.2043C116.884 15.7865 117.364 16.2584 117.957 16.2584Z" fill="#FFCE00"/>
<path d="M99.4127 16.2584C100.005 16.2584 100.486 15.7865 100.486 15.2043C100.486 14.6222 100.005 14.1503 99.4127 14.1503C98.82 14.1503 98.3396 14.6222 98.3396 15.2043C98.3396 15.7865 98.82 16.2584 99.4127 16.2584Z" fill="#FFCE00"/>
</g>
<defs>
<clipPath id="clip0">
<rect width="127" height="38" fill="white"/>
</clipPath>
</defs>
</svg>
