<?xml version="1.0" encoding="UTF-8" standalone="no"?>
<!DOCTYPE svg PUBLIC "-//W3C//DTD SVG 1.1//EN" "http://www.w3.org/Graphics/SVG/1.1/DTD/svg11.dtd">
<svg version="1.1" xmlns="http://www.w3.org/2000/svg" xmlns:xlink="http://www.w3.org/1999/xlink" preserveAspectRatio="xMidYMid meet" viewBox="0 0 20 20" width="20" height="20"><defs><path d="M10.29 0.02L10.58 0.04L10.87 0.07L11.16 0.11L11.45 0.16L11.74 0.21L12.02 0.28L12.3 0.35L12.58 0.44L12.86 0.53L13.14 0.63L13.41 0.74L13.68 0.85L13.95 0.98L14.21 1.11L14.47 1.25L14.72 1.4L14.97 1.55L15.21 1.71L15.45 1.88L15.68 2.06L15.91 2.25L16.13 2.44L16.35 2.64L16.56 2.84L16.97 3.27L17.34 3.73L17.69 4.2L18.01 4.69L18.29 5.2L18.55 5.72L18.77 6.25L18.96 6.8L19.12 7.36L19.24 7.94L19.33 8.52L19.38 9.1L19.4 9.7L19.39 10.06L19.37 10.41L19.34 10.76L19.29 11.12L19.23 11.47L19.16 11.82L19.08 12.16L18.98 12.5L18.87 12.84L18.75 13.18L18.62 13.5L18.48 13.83L18.32 14.15L19.95 18.8L19.97 18.88L19.99 18.96L20 19.03L20 19.11L20 19.19L19.99 19.26L19.97 19.34L19.95 19.41L19.92 19.48L19.88 19.55L19.84 19.62L19.79 19.68L19.74 19.74L19.7 19.77L19.65 19.81L19.61 19.84L19.56 19.87L19.52 19.9L19.47 19.92L19.42 19.94L19.37 19.96L19.32 19.97L19.26 19.99L19.21 19.99L19.16 20L19.1 20L19.08 20L19.06 20L19.03 20L19.01 20L18.99 19.99L18.97 19.99L18.94 19.99L18.92 19.98L18.9 19.98L18.87 19.97L18.85 19.96L18.83 19.96L18.8 19.95L14.15 18.32L13.83 18.48L13.5 18.62L13.18 18.75L12.84 18.87L12.5 18.98L12.16 19.08L11.82 19.16L11.47 19.23L11.12 19.29L10.76 19.34L10.41 19.37L10.06 19.39L9.7 19.4L9.1 19.38L8.52 19.33L7.94 19.24L7.36 19.12L6.8 18.96L6.25 18.77L5.72 18.55L5.2 18.29L4.69 18.01L4.2 17.69L3.73 17.34L3.27 16.97L2.84 16.56L2.43 16.12L2.05 15.67L1.71 15.2L1.39 14.71L1.1 14.2L0.85 13.68L0.63 13.14L0.44 12.59L0.28 12.03L0.16 11.46L0.07 10.88L0.02 10.29L0 9.7L0.02 9.1L0.07 8.52L0.16 7.94L0.28 7.36L0.44 6.8L0.63 6.25L0.85 5.72L1.1 5.2L1.39 4.69L1.71 4.2L2.05 3.73L2.43 3.27L2.84 2.84L3.27 2.43L3.73 2.05L4.2 1.71L4.69 1.39L5.2 1.1L5.72 0.85L6.25 0.63L6.8 0.44L7.36 0.28L7.94 0.16L8.52 0.07L9.1 0.02L9.7 0L9.7 0L9.99 0L10.29 0.02ZM9.08 1.19L8.47 1.26L7.87 1.37L7.29 1.52L6.71 1.71L6.16 1.94L5.62 2.21L5.1 2.52L4.6 2.86L4.12 3.25L3.67 3.67L3.25 4.12L2.86 4.6L2.52 5.1L2.21 5.62L1.94 6.16L1.71 6.71L1.52 7.29L1.37 7.87L1.26 8.47L1.19 9.08L1.17 9.7L1.19 10.32L1.26 10.93L1.37 11.52L1.52 12.11L1.71 12.68L1.94 13.24L2.21 13.78L2.52 14.3L2.86 14.8L3.25 15.28L3.67 15.73L4.12 16.15L4.6 16.53L5.1 16.88L5.62 17.19L6.16 17.46L6.71 17.69L7.29 17.88L7.87 18.03L8.47 18.14L9.08 18.2L9.7 18.22L10.08 18.22L10.46 18.19L10.83 18.15L11.21 18.09L11.58 18.01L11.95 17.92L12.31 17.82L12.67 17.69L13.02 17.55L13.36 17.4L13.7 17.23L13.76 17.2L13.83 17.17L13.89 17.15L13.96 17.14L14.02 17.13L14.09 17.12L14.16 17.12L14.22 17.13L14.29 17.14L14.36 17.15L14.42 17.17L18.65 18.65L17.17 14.42L17.15 14.36L17.14 14.29L17.13 14.22L17.12 14.16L17.12 14.09L17.13 14.02L17.14 13.96L17.15 13.89L17.17 13.83L17.2 13.76L17.23 13.7L17.4 13.36L17.55 13.02L17.69 12.67L17.82 12.31L17.92 11.95L18.01 11.58L18.09 11.21L18.15 10.83L18.19 10.46L18.22 10.08L18.22 9.7L18.2 9.08L18.14 8.47L18.03 7.87L17.88 7.29L17.69 6.71L17.46 6.16L17.19 5.62L16.88 5.1L16.53 4.6L16.15 4.12L15.73 3.67L15.28 3.25L14.8 2.86L14.3 2.52L13.78 2.21L13.24 1.94L12.68 1.71L12.11 1.52L11.52 1.37L10.93 1.26L10.32 1.19L9.7 1.17L9.7 1.17L9.08 1.19Z" id="beF3TQrZe"></path><path d="M13.2 4.18L13.41 4.35L14.51 5.44L14.74 5.74L14.9 6.08L14.98 6.48L15 6.92L14.94 7.4L14.8 7.92L14.59 8.47L14.36 8.98L14.07 9.49L13.75 10L13.38 10.52L12.97 11.04L12.52 11.55L12.05 12.05L11.55 12.52L11.04 12.97L10.52 13.38L10 13.75L9.49 14.07L8.98 14.36L8.47 14.59L8.21 14.7L7.95 14.79L7.7 14.87L7.45 14.93L7.22 14.97L6.99 14.99L6.77 15L6.54 14.99L6.33 14.96L6.12 14.91L5.93 14.84L5.75 14.75L5.59 14.64L5.44 14.51L4.35 13.41L4.35 13.41L4.26 13.31L4.18 13.2L4.12 13.09L4.07 12.97L4.03 12.84L4.01 12.71L4 12.57L4.01 12.44L4.03 12.3L4.07 12.18L4.12 12.06L4.18 11.94L4.26 11.83L4.35 11.73L5.72 10.36L6.05 10.25L6.35 10.17L6.62 10.14L6.86 10.14L7.07 10.17L7.25 10.25L7.4 10.36L7.91 10.87L8.43 10.56L8.92 10.2L9.39 9.81L9.81 9.38L10.2 8.92L10.56 8.43L10.87 7.9L10.36 7.4L10.19 7.18L10.08 6.94L10.02 6.69L10.02 6.43L10.08 6.17L10.19 5.93L10.36 5.71L11.73 4.35L11.95 4.18L12.19 4.06L12.44 4.01L12.7 4.01L12.96 4.06L13.2 4.18ZM11.88 7.19L12.03 7.38L12.12 7.59L12.16 7.82L12.13 8.05L12.05 8.28L11.5 9.22L10.83 10.07L10.07 10.83L9.22 11.5L8.28 12.05L8.05 12.13L7.82 12.16L7.59 12.12L7.38 12.03L7.19 11.88L6.56 11.25L5.23 12.57L6.3 13.64L6.61 13.71L6.92 13.73L7.26 13.7L7.62 13.61L7.99 13.47L8.62 13.17L9.26 12.78L9.9 12.31L10.55 11.78L11.18 11.18L11.78 10.55L12.31 9.9L12.78 9.25L13.17 8.62L13.47 7.99L13.67 7.47L13.76 7.04L13.78 6.7L13.73 6.46L13.64 6.3L12.57 5.23L11.25 6.56L11.88 7.19Z" id="b30WJUchO"></path></defs><g><g><g><use xlink:href="#beF3TQrZe" opacity="1" fill="#ffce00" fill-opacity="1"></use><g><use xlink:href="#beF3TQrZe" opacity="1" fill-opacity="0" stroke="#000000" stroke-width="1" stroke-opacity="0"></use></g></g><g><use xlink:href="#b30WJUchO" opacity="1" fill="#ffce00" fill-opacity="1"></use><g><use xlink:href="#b30WJUchO" opacity="1" fill-opacity="0" stroke="#000000" stroke-width="1" stroke-opacity="0"></use></g></g></g></g></svg>