<svg width="74" height="74" viewBox="0 0 74 74" fill="none" xmlns="http://www.w3.org/2000/svg">
<path d="M70.6903 72.8438C71.2539 72.8438 71.8031 72.6125 72.2078 72.2078C72.8004 71.6152 73.0028 70.748 72.7281 69.9531L66.5278 52.248L66.759 51.8C69.2883 46.9004 70.618 41.3937 70.618 35.8727C70.618 26.5938 67.0047 17.8785 60.443 11.3168C57.191 8.06484 53.4043 5.53555 49.184 3.78672C44.9492 2.05234 40.4832 1.15625 35.8871 1.15625C26.6082 1.15625 17.893 4.76953 11.3313 11.3313C4.76955 17.893 1.15627 26.6082 1.15627 35.8871C1.15627 45.166 4.76955 53.8813 11.3313 60.443C17.893 67.0047 26.6082 70.618 35.8871 70.618C41.4082 70.618 46.9149 69.2883 51.8145 66.759L52.2625 66.5277L69.9531 72.7137C70.1988 72.8004 70.4445 72.8438 70.6903 72.8438ZM35.8871 3.17969C44.6168 3.17969 52.8262 6.57617 59.0121 12.7621C65.1836 18.9336 68.5945 27.1574 68.5945 35.8871C68.5945 41.2348 67.2793 46.5391 64.7645 51.2363C64.4754 51.7711 64.432 52.407 64.6344 52.9707L70.907 70.8926L52.9852 64.6199C52.7539 64.5332 52.5227 64.5043 52.277 64.5043C51.9156 64.5043 51.5688 64.591 51.2508 64.7645C46.5535 67.2648 41.2492 68.5945 35.9016 68.5945C27.1719 68.5945 18.9481 65.198 12.7766 59.0121C6.6051 52.8406 3.19416 44.6168 3.19416 35.8871C3.19416 27.1574 6.59064 18.9336 12.7766 12.7621C18.9336 6.59063 27.1574 3.17969 35.8871 3.17969Z" fill="#FFCE00"/>
<path d="M26.8105 53.6355C28.3714 53.6355 30.1781 53.2019 32.187 52.3492C35.9738 50.7304 40.1507 47.7386 43.9519 43.9375C47.7531 40.1363 50.7304 35.9593 52.3636 32.1726C54.1269 28.0679 54.0835 24.8015 52.2769 22.9804L48.5769 19.2804C47.9988 18.7023 47.2328 18.3843 46.4089 18.3843C45.5851 18.3843 44.8191 18.7023 44.241 19.2804L39.616 23.9054C39.0378 24.4836 38.7199 25.2496 38.7199 26.0734C38.7199 26.8972 39.0378 27.6632 39.616 28.2414L41.4804 30.1058C41.6972 30.3226 41.7406 30.6406 41.596 30.9007L41.4949 31.0886C39.0956 35.4968 35.4968 39.0957 31.0886 41.4949L30.9007 41.5961C30.6406 41.7406 30.3226 41.6972 30.1058 41.4804L28.2413 39.616C27.6632 39.0379 26.8972 38.7199 26.0734 38.7199C25.2495 38.7199 24.4835 39.0379 23.9054 39.616L19.2804 44.241C18.7023 44.8191 18.3843 45.5851 18.3843 46.4089C18.3843 47.2039 18.6878 47.9699 19.2515 48.5336L22.9804 52.2625C23.9054 53.173 25.1917 53.6355 26.8105 53.6355ZM50.7015 24.5414C51.8144 25.6543 51.6699 28.1836 50.3257 31.3054C48.8081 34.8464 45.9898 38.7777 42.391 42.3765C38.7921 45.9754 34.8609 48.7937 31.3199 50.3113C29.5855 51.0484 28.0824 51.4242 26.8394 51.4242C25.8277 51.4242 25.0472 51.164 24.5558 50.6726L20.7257 46.8425C20.4656 46.5824 20.4656 46.1632 20.7257 45.8886L25.6109 41.0035C25.871 40.7433 26.2902 40.7433 26.5648 41.0035L28.9062 43.3882C29.3253 43.8074 29.8745 44.0386 30.4527 44.0386C30.7995 44.0386 31.132 43.9519 31.4499 43.7929C36.7976 41.0613 41.0613 36.7976 43.7929 31.45C44.2265 30.5972 44.0675 29.5855 43.3882 28.9062L41.0324 26.5504C40.7722 26.2902 40.7722 25.8711 41.0324 25.5964L45.9175 20.7113C46.1777 20.4511 46.5968 20.4511 46.8714 20.7113L50.7015 24.5414Z" fill="#FFCE00"/>
</svg>
