<svg width="294" height="294" viewBox="0 0 294 294" fill="none" xmlns="http://www.w3.org/2000/svg">
<path d="M139.665 0H154.923C155.868 0.193161 156.806 0.497389 157.761 0.561776C176.888 1.8302 195.152 6.53527 212.142 15.3708C257.092 38.7255 283.964 75.4034 292.254 125.496C292.997 130.003 293.425 134.554 294 139.084V154.342C293.802 155.385 293.559 156.423 293.414 157.473C292.542 163.852 292.099 170.319 290.773 176.602C274.132 255.355 197.922 305.858 119.08 290.51C55.6915 278.166 7.25484 224.836 1.36183 160.739C-1.18306 133.052 3.24192 106.467 16.0372 81.7423C39.2825 36.8116 76.0297 10.0266 126.057 1.74971C130.565 1.00283 135.127 0.576262 139.665 0ZM165.317 84.8039L213.069 226.825C213.541 225.481 213.713 225.055 213.838 224.626C220.384 202.856 226.924 181.083 233.457 159.308C239.065 140.577 236.676 122.811 226.883 105.978C224.23 101.417 221.457 96.9296 218.82 92.3613C215.823 87.1685 213.6 81.7101 212.789 75.6803C211.137 63.3905 219.427 51.8266 231.601 49.7147C232.958 49.4797 234.338 49.3445 236.528 49.0515C199.524 17.9607 158.4 7.3401 112.279 19.4979C80.4917 27.8843 55.7575 46.6225 36.8985 74.2751C44.0841 74.2751 50.4198 74.4521 56.7329 74.23C64.5446 73.9531 72.3467 73.3077 80.1504 72.8972C83.7577 72.7073 85.9082 74.3813 86.2237 77.3898C86.581 80.7958 85.0052 82.7967 81.3754 83.426C80.0313 83.6578 78.6615 83.748 77.2997 83.8687C73.7584 84.1906 70.2171 84.5126 66.341 84.8538C82.3879 132.577 98.2689 179.81 114.148 227.043C114.968 226.507 115.129 226.156 115.249 225.79C124.488 198.123 133.706 170.45 142.903 142.77C143.261 141.691 143.105 140.244 142.707 139.142C136.458 121.788 130.108 104.471 123.851 87.1202C123.195 85.2997 122.242 84.5448 120.273 84.4321C116.279 84.2132 112.296 83.7544 108.318 83.3053C105.97 83.0365 104.716 81.5347 104.345 79.2538C103.673 75.1121 106.359 72.5334 111.215 72.9423C131.026 74.6147 150.838 75.1781 170.677 73.4783C173.896 73.203 177.115 72.9407 180.335 72.9197C183.132 72.9004 185.093 74.9366 185.325 77.6811C185.557 80.4256 183.99 82.6711 181.255 83.2715C179.829 83.5806 178.358 83.7045 176.9 83.8365C173.218 84.1633 169.535 84.453 165.317 84.8039ZM191.017 271.291C177.222 233.52 163.604 196.233 149.988 158.947L149.183 159.108C136.111 197.074 123.042 235.049 109.876 273.305C137.352 281.194 164.138 280.488 191.017 271.291ZM26.983 93.1275C12.7889 122.388 9.43755 165.77 28.826 205.087C41.0966 229.964 74.8465 263.297 89.6201 264.727C68.7604 207.582 47.9344 150.524 26.983 93.1275ZM213.753 260.034L214.477 260.438C246.893 240.364 267.997 211.958 276.348 174.482C282.935 144.93 275.566 96.2229 263.085 84.5496C264.156 94.2184 263.949 103.986 262.468 113.601C260.775 124.569 257.085 134.931 253.436 145.35C241.184 180.34 229.145 215.403 217.026 250.439C215.921 253.636 214.843 256.838 213.753 260.034Z" fill="#FFCE00"/>
</svg>
